<mxfile host="embed.diagrams.net" modified="2023-12-03T18:18:05.024Z" agent="Mozilla/5.0 (Windows NT 10.0; Win64; x64; rv:109.0) Gecko/20100101 Firefox/119.0" etag="beD2zDHNh3f0tAAUDerr" version="22.1.5" type="embed">
  <diagram id="2_XsPb5BHo2p8QNxJZMn" name="Page-1">
    <mxGraphModel grid="1" page="1" gridSize="10" guides="1" tooltips="1" connect="1" arrows="1" fold="1" pageScale="1" pageWidth="827" pageHeight="1169" math="0" shadow="0">
      <root>
        <mxCell id="0" />
        <mxCell id="1" parent="0" />
        <mxCell id="W6_hlZnn-KgXA1NEJbQf-160" value="" style="endArrow=classic;html=1;rounded=0;exitX=1.008;exitY=0.547;exitDx=0;exitDy=0;exitPerimeter=0;" edge="1" parent="1">
          <mxGeometry width="50" height="50" relative="1" as="geometry">
            <mxPoint x="2900" y="761.5" as="sourcePoint" />
            <mxPoint x="3131" y="758.5" as="targetPoint" />
            <Array as="points">
              <mxPoint x="3041" y="758.5" />
            </Array>
          </mxGeometry>
        </mxCell>
        <mxCell id="W6_hlZnn-KgXA1NEJbQf-150" value="" style="endArrow=classic;html=1;rounded=0;exitX=1.008;exitY=0.547;exitDx=0;exitDy=0;exitPerimeter=0;" edge="1" parent="1" source="W6_hlZnn-KgXA1NEJbQf-144">
          <mxGeometry width="50" height="50" relative="1" as="geometry">
            <mxPoint x="2600" y="765" as="sourcePoint" />
            <mxPoint x="2832" y="761" as="targetPoint" />
            <Array as="points">
              <mxPoint x="2742" y="761" />
            </Array>
          </mxGeometry>
        </mxCell>
        <mxCell id="W6_hlZnn-KgXA1NEJbQf-143" value="" style="group" connectable="0" vertex="1" parent="1">
          <mxGeometry x="2510" y="720" width="100" height="80" as="geometry" />
        </mxCell>
        <mxCell id="W6_hlZnn-KgXA1NEJbQf-144" value="" style="shape=sumEllipse;perimeter=ellipsePerimeter;whiteSpace=wrap;html=1;backgroundOutline=1;fillColor=#fff2cc;strokeColor=#d6b656;" vertex="1" parent="W6_hlZnn-KgXA1NEJbQf-143">
          <mxGeometry x="10" width="80" height="80" as="geometry" />
        </mxCell>
        <mxCell id="W6_hlZnn-KgXA1NEJbQf-145" value="9" style="text;html=1;align=center;verticalAlign=middle;whiteSpace=wrap;rounded=0;" vertex="1" parent="W6_hlZnn-KgXA1NEJbQf-143">
          <mxGeometry x="40" y="50" width="20" height="20" as="geometry" />
        </mxCell>
        <mxCell id="W6_hlZnn-KgXA1NEJbQf-146" value="17" style="text;html=1;align=center;verticalAlign=middle;whiteSpace=wrap;rounded=0;" vertex="1" parent="W6_hlZnn-KgXA1NEJbQf-143">
          <mxGeometry x="20" y="30" width="20" height="20" as="geometry" />
        </mxCell>
        <mxCell id="W6_hlZnn-KgXA1NEJbQf-147" value="17" style="text;html=1;align=center;verticalAlign=middle;whiteSpace=wrap;rounded=0;" vertex="1" parent="W6_hlZnn-KgXA1NEJbQf-143">
          <mxGeometry x="60" y="30" width="20" height="20" as="geometry" />
        </mxCell>
        <mxCell id="W6_hlZnn-KgXA1NEJbQf-148" value="0" style="text;html=1;align=center;verticalAlign=middle;whiteSpace=wrap;rounded=0;" vertex="1" parent="W6_hlZnn-KgXA1NEJbQf-143">
          <mxGeometry x="40" y="10" width="20" height="20" as="geometry" />
        </mxCell>
        <mxCell id="W6_hlZnn-KgXA1NEJbQf-139" value="" style="endArrow=classic;html=1;rounded=0;exitX=1;exitY=0.5;exitDx=0;exitDy=0;entryX=0.5;entryY=1;entryDx=0;entryDy=0;" edge="1" parent="W6_hlZnn-KgXA1NEJbQf-143">
          <mxGeometry width="50" height="50" relative="1" as="geometry">
            <mxPoint x="-380" y="160.0000000000001" as="sourcePoint" />
            <mxPoint x="32" y="80.00000000000023" as="targetPoint" />
            <Array as="points">
              <mxPoint x="-48" y="160" />
            </Array>
          </mxGeometry>
        </mxCell>
        <mxCell id="W6_hlZnn-KgXA1NEJbQf-127" value="" style="endArrow=classic;html=1;rounded=0;exitX=0.859;exitY=0.832;exitDx=0;exitDy=0;exitPerimeter=0;" edge="1" parent="1" source="W6_hlZnn-KgXA1NEJbQf-121">
          <mxGeometry width="50" height="50" relative="1" as="geometry">
            <mxPoint x="1856" y="914" as="sourcePoint" />
            <mxPoint x="2080" y="910" as="targetPoint" />
            <Array as="points">
              <mxPoint x="1998" y="910" />
            </Array>
          </mxGeometry>
        </mxCell>
        <mxCell id="W6_hlZnn-KgXA1NEJbQf-126" value="" style="endArrow=classic;html=1;rounded=0;exitX=0.853;exitY=0.172;exitDx=0;exitDy=0;exitPerimeter=0;" edge="1" parent="1" source="W6_hlZnn-KgXA1NEJbQf-121">
          <mxGeometry width="50" height="50" relative="1" as="geometry">
            <mxPoint x="1880" y="860.0000000000001" as="sourcePoint" />
            <mxPoint x="2080" y="850" as="targetPoint" />
            <Array as="points">
              <mxPoint x="1990" y="850" />
            </Array>
          </mxGeometry>
        </mxCell>
        <mxCell id="W6_hlZnn-KgXA1NEJbQf-87" value="" style="endArrow=classic;html=1;rounded=0;exitX=0.667;exitY=0.167;exitDx=0;exitDy=0;exitPerimeter=0;" edge="1" parent="1">
          <mxGeometry width="50" height="50" relative="1" as="geometry">
            <mxPoint x="1868" y="389.5" as="sourcePoint" />
            <mxPoint x="2068" y="389.5" as="targetPoint" />
            <Array as="points">
              <mxPoint x="1978" y="389.5" />
            </Array>
          </mxGeometry>
        </mxCell>
        <mxCell id="W6_hlZnn-KgXA1NEJbQf-62" value="" style="endArrow=classic;html=1;rounded=0;exitX=1;exitY=0.5;exitDx=0;exitDy=0;entryX=0.627;entryY=1.023;entryDx=0;entryDy=0;entryPerimeter=0;" edge="1" parent="1" target="W6_hlZnn-KgXA1NEJbQf-144">
          <mxGeometry width="50" height="50" relative="1" as="geometry">
            <mxPoint x="2020" y="1079.8600000000001" as="sourcePoint" />
            <mxPoint x="2300" y="1079.7" as="targetPoint" />
            <Array as="points">
              <mxPoint x="2130" y="1079.8600000000001" />
              <mxPoint x="2500" y="1080" />
            </Array>
          </mxGeometry>
        </mxCell>
        <mxCell id="W6_hlZnn-KgXA1NEJbQf-60" value="" style="endArrow=classic;html=1;rounded=0;exitX=1;exitY=0.5;exitDx=0;exitDy=0;entryX=0;entryY=0;entryDx=0;entryDy=0;" edge="1" parent="1" target="W6_hlZnn-KgXA1NEJbQf-144">
          <mxGeometry width="50" height="50" relative="1" as="geometry">
            <mxPoint x="2040" y="689.7400000000001" as="sourcePoint" />
            <mxPoint x="2530" y="690" as="targetPoint" />
            <Array as="points">
              <mxPoint x="2460" y="690" />
            </Array>
          </mxGeometry>
        </mxCell>
        <mxCell id="W6_hlZnn-KgXA1NEJbQf-49" value="" style="endArrow=classic;html=1;rounded=0;exitX=1;exitY=0.5;exitDx=0;exitDy=0;" edge="1" parent="1">
          <mxGeometry width="50" height="50" relative="1" as="geometry">
            <mxPoint x="1700" y="720.1600000000001" as="sourcePoint" />
            <mxPoint x="1980" y="720" as="targetPoint" />
            <Array as="points">
              <mxPoint x="1810" y="720.1600000000001" />
            </Array>
          </mxGeometry>
        </mxCell>
        <mxCell id="W6_hlZnn-KgXA1NEJbQf-48" value="" style="endArrow=classic;html=1;rounded=0;exitX=1;exitY=0.5;exitDx=0;exitDy=0;" edge="1" parent="1">
          <mxGeometry width="50" height="50" relative="1" as="geometry">
            <mxPoint x="1700" y="665.0200000000001" as="sourcePoint" />
            <mxPoint x="1980" y="664.86" as="targetPoint" />
            <Array as="points">
              <mxPoint x="1810" y="665.0200000000001" />
            </Array>
          </mxGeometry>
        </mxCell>
        <mxCell id="W6_hlZnn-KgXA1NEJbQf-19" value="" style="endArrow=classic;html=1;rounded=0;exitX=1;exitY=0.5;exitDx=0;exitDy=0;entryX=0.387;entryY=1;entryDx=0;entryDy=0;entryPerimeter=0;" edge="1" parent="1" target="W6_hlZnn-KgXA1NEJbQf-53">
          <mxGeometry width="50" height="50" relative="1" as="geometry">
            <mxPoint x="1190" y="780.1600000000001" as="sourcePoint" />
            <mxPoint x="2010" y="780" as="targetPoint" />
            <Array as="points">
              <mxPoint x="1300" y="780.1600000000001" />
              <mxPoint x="1980" y="780" />
            </Array>
          </mxGeometry>
        </mxCell>
        <mxCell id="JG07l5RM8xytLAkRtf2T-149" value="" style="endArrow=classic;html=1;rounded=0;exitX=1;exitY=0.5;exitDx=0;exitDy=0;entryX=0;entryY=0.625;entryDx=0;entryDy=0;entryPerimeter=0;" edge="1" parent="1" target="W6_hlZnn-KgXA1NEJbQf-4">
          <mxGeometry width="50" height="50" relative="1" as="geometry">
            <mxPoint x="1610" y="1090" as="sourcePoint" />
            <mxPoint x="1890" y="1090" as="targetPoint" />
            <Array as="points">
              <mxPoint x="1810" y="1090" />
            </Array>
          </mxGeometry>
        </mxCell>
        <mxCell id="JG07l5RM8xytLAkRtf2T-150" value="" style="endArrow=classic;html=1;rounded=0;exitX=0.979;exitY=0.366;exitDx=0;exitDy=0;entryX=-0.016;entryY=0.337;entryDx=0;entryDy=0;entryPerimeter=0;exitPerimeter=0;" edge="1" parent="1" source="JG07l5RM8xytLAkRtf2T-143" target="W6_hlZnn-KgXA1NEJbQf-4">
          <mxGeometry width="50" height="50" relative="1" as="geometry">
            <mxPoint x="1620" y="1050" as="sourcePoint" />
            <mxPoint x="1910" y="1050" as="targetPoint" />
            <Array as="points">
              <mxPoint x="1820" y="1050" />
            </Array>
          </mxGeometry>
        </mxCell>
        <mxCell id="JG07l5RM8xytLAkRtf2T-74" value="" style="endArrow=classic;html=1;rounded=0;exitX=1;exitY=0.5;exitDx=0;exitDy=0;" edge="1" parent="1">
          <mxGeometry width="50" height="50" relative="1" as="geometry">
            <mxPoint x="687" y="1149.8400000000001" as="sourcePoint" />
            <mxPoint x="860" y="1149.47" as="targetPoint" />
            <Array as="points">
              <mxPoint x="797" y="1149.8400000000001" />
            </Array>
          </mxGeometry>
        </mxCell>
        <mxCell id="JG07l5RM8xytLAkRtf2T-64" value="" style="endArrow=classic;html=1;rounded=0;exitX=1;exitY=0.5;exitDx=0;exitDy=0;" edge="1" parent="1">
          <mxGeometry width="50" height="50" relative="1" as="geometry">
            <mxPoint x="440" y="1149.8400000000001" as="sourcePoint" />
            <mxPoint x="613" y="1149.47" as="targetPoint" />
            <Array as="points">
              <mxPoint x="550" y="1149.8400000000001" />
            </Array>
          </mxGeometry>
        </mxCell>
        <mxCell id="JG07l5RM8xytLAkRtf2T-59" value="" style="endArrow=classic;html=1;rounded=0;exitX=1;exitY=0.5;exitDx=0;exitDy=0;" edge="1" parent="1">
          <mxGeometry width="50" height="50" relative="1" as="geometry">
            <mxPoint x="958.5" y="880.1600000000001" as="sourcePoint" />
            <mxPoint x="1200" y="880" as="targetPoint" />
            <Array as="points">
              <mxPoint x="1068.5" y="880.1600000000001" />
            </Array>
          </mxGeometry>
        </mxCell>
        <mxCell id="JG07l5RM8xytLAkRtf2T-57" value="" style="endArrow=classic;html=1;rounded=0;exitX=1;exitY=0.5;exitDx=0;exitDy=0;" edge="1" parent="1">
          <mxGeometry width="50" height="50" relative="1" as="geometry">
            <mxPoint x="948.5" y="850.3700000000001" as="sourcePoint" />
            <mxPoint x="1140" y="760" as="targetPoint" />
            <Array as="points">
              <mxPoint x="1058.5" y="850.3700000000001" />
            </Array>
          </mxGeometry>
        </mxCell>
        <mxCell id="JG07l5RM8xytLAkRtf2T-58" value="" style="endArrow=classic;html=1;rounded=0;exitX=0.5;exitY=1;exitDx=0;exitDy=0;" edge="1" parent="1" source="JG07l5RM8xytLAkRtf2T-52">
          <mxGeometry width="50" height="50" relative="1" as="geometry">
            <mxPoint x="938.5" y="1020.3700000000001" as="sourcePoint" />
            <mxPoint x="1100" y="1070" as="targetPoint" />
            <Array as="points">
              <mxPoint x="1000" y="1070" />
            </Array>
          </mxGeometry>
        </mxCell>
        <mxCell id="JG07l5RM8xytLAkRtf2T-47" value="" style="endArrow=classic;html=1;rounded=0;exitX=1;exitY=0.5;exitDx=0;exitDy=0;entryX=0;entryY=0.5;entryDx=0;entryDy=0;" edge="1" parent="1" target="JG07l5RM8xytLAkRtf2T-52">
          <mxGeometry width="50" height="50" relative="1" as="geometry">
            <mxPoint x="607" y="879.3700000000001" as="sourcePoint" />
            <mxPoint x="780" y="879" as="targetPoint" />
            <Array as="points">
              <mxPoint x="717" y="879.3700000000001" />
            </Array>
          </mxGeometry>
        </mxCell>
        <mxCell id="JG07l5RM8xytLAkRtf2T-12" value="" style="endArrow=classic;html=1;rounded=0;exitX=1;exitY=0.5;exitDx=0;exitDy=0;entryX=0.167;entryY=0.5;entryDx=0;entryDy=0;entryPerimeter=0;" edge="1" parent="1" source="Evy_VJ2f85a_wjDh4gpD-41" target="Evy_VJ2f85a_wjDh4gpD-59">
          <mxGeometry width="50" height="50" relative="1" as="geometry">
            <mxPoint x="540" y="520" as="sourcePoint" />
            <mxPoint x="680" y="390" as="targetPoint" />
            <Array as="points">
              <mxPoint x="570" y="390" />
            </Array>
          </mxGeometry>
        </mxCell>
        <mxCell id="Evy_VJ2f85a_wjDh4gpD-84" value="" style="endArrow=classic;html=1;rounded=0;exitX=0.667;exitY=0.167;exitDx=0;exitDy=0;exitPerimeter=0;" edge="1" parent="1">
          <mxGeometry width="50" height="50" relative="1" as="geometry">
            <mxPoint x="750" y="414.58" as="sourcePoint" />
            <mxPoint x="950" y="414.58" as="targetPoint" />
            <Array as="points">
              <mxPoint x="860" y="414.58" />
            </Array>
          </mxGeometry>
        </mxCell>
        <mxCell id="Evy_VJ2f85a_wjDh4gpD-83" value="" style="endArrow=classic;html=1;rounded=0;exitX=0.667;exitY=0.167;exitDx=0;exitDy=0;exitPerimeter=0;" edge="1" parent="1" source="Evy_VJ2f85a_wjDh4gpD-60">
          <mxGeometry width="50" height="50" relative="1" as="geometry">
            <mxPoint x="840" y="330" as="sourcePoint" />
            <mxPoint x="950" y="380" as="targetPoint" />
            <Array as="points">
              <mxPoint x="860" y="380" />
            </Array>
          </mxGeometry>
        </mxCell>
        <mxCell id="Evy_VJ2f85a_wjDh4gpD-1" value="" style="group" connectable="0" vertex="1" parent="1">
          <mxGeometry x="380" y="555" width="120" height="85" as="geometry" />
        </mxCell>
        <mxCell id="Evy_VJ2f85a_wjDh4gpD-3" value="" style="group" connectable="0" vertex="1" parent="Evy_VJ2f85a_wjDh4gpD-1">
          <mxGeometry x="20" y="-10" width="100" height="85" as="geometry" />
        </mxCell>
        <mxCell id="Evy_VJ2f85a_wjDh4gpD-8" value="0" style="text;html=1;strokeColor=none;fillColor=none;align=center;verticalAlign=middle;whiteSpace=wrap;rounded=0;" vertex="1" parent="Evy_VJ2f85a_wjDh4gpD-3">
          <mxGeometry x="40" y="25" width="60" height="30" as="geometry" />
        </mxCell>
        <mxCell id="Evy_VJ2f85a_wjDh4gpD-7" value="0" style="text;html=1;align=center;verticalAlign=middle;whiteSpace=wrap;rounded=0;" vertex="1" parent="Evy_VJ2f85a_wjDh4gpD-3">
          <mxGeometry y="25" width="60" height="30" as="geometry" />
        </mxCell>
        <mxCell id="Evy_VJ2f85a_wjDh4gpD-6" value="0" style="text;html=1;align=center;verticalAlign=middle;whiteSpace=wrap;rounded=0;" vertex="1" parent="Evy_VJ2f85a_wjDh4gpD-3">
          <mxGeometry x="20" width="60" height="30" as="geometry" />
        </mxCell>
        <mxCell id="Evy_VJ2f85a_wjDh4gpD-4" value="" style="shape=sumEllipse;perimeter=ellipsePerimeter;whiteSpace=wrap;html=1;backgroundOutline=1;fillColor=#fff2cc;strokeColor=#d6b656;" vertex="1" parent="Evy_VJ2f85a_wjDh4gpD-3">
          <mxGeometry x="10" y="5" width="80" height="80" as="geometry" />
        </mxCell>
        <mxCell id="Evy_VJ2f85a_wjDh4gpD-5" value="2" style="text;html=1;align=center;verticalAlign=middle;whiteSpace=wrap;rounded=0;" vertex="1" parent="Evy_VJ2f85a_wjDh4gpD-3">
          <mxGeometry x="20" y="55" width="60" height="30" as="geometry" />
        </mxCell>
        <mxCell id="Evy_VJ2f85a_wjDh4gpD-23" value="2" style="text;html=1;strokeColor=none;fillColor=none;align=center;verticalAlign=middle;whiteSpace=wrap;rounded=0;" vertex="1" parent="Evy_VJ2f85a_wjDh4gpD-3">
          <mxGeometry y="30" width="60" height="30" as="geometry" />
        </mxCell>
        <mxCell id="Evy_VJ2f85a_wjDh4gpD-25" value="2" style="text;html=1;strokeColor=none;fillColor=none;align=center;verticalAlign=middle;whiteSpace=wrap;rounded=0;" vertex="1" parent="Evy_VJ2f85a_wjDh4gpD-3">
          <mxGeometry x="40" y="27.5" width="60" height="30" as="geometry" />
        </mxCell>
        <mxCell id="Evy_VJ2f85a_wjDh4gpD-24" value="0" style="text;html=1;strokeColor=none;fillColor=none;align=center;verticalAlign=middle;whiteSpace=wrap;rounded=0;" vertex="1" parent="Evy_VJ2f85a_wjDh4gpD-3">
          <mxGeometry x="20" y="5" width="60" height="30" as="geometry" />
        </mxCell>
        <mxCell id="Loq4wzwwRcOsAHtzaIZx-1" value="" style="group" connectable="0" vertex="1" parent="1">
          <mxGeometry x="20" y="545" width="100" height="80" as="geometry" />
        </mxCell>
        <mxCell id="pdAyzXSSUI1pdt9ZqddD-7" value="0" style="text;html=1;align=center;verticalAlign=middle;whiteSpace=wrap;rounded=0;" vertex="1" parent="Loq4wzwwRcOsAHtzaIZx-1">
          <mxGeometry x="40" y="25" width="60" height="30" as="geometry" />
        </mxCell>
        <mxCell id="Loq4wzwwRcOsAHtzaIZx-8" value="" style="group" connectable="0" vertex="1" parent="Loq4wzwwRcOsAHtzaIZx-1">
          <mxGeometry width="100" height="80" as="geometry" />
        </mxCell>
        <mxCell id="pdAyzXSSUI1pdt9ZqddD-1" value="" style="shape=sumEllipse;perimeter=ellipsePerimeter;whiteSpace=wrap;html=1;backgroundOutline=1;fillColor=#fff2cc;strokeColor=#d6b656;" vertex="1" parent="Loq4wzwwRcOsAHtzaIZx-8">
          <mxGeometry x="10" width="80" height="80" as="geometry" />
        </mxCell>
        <mxCell id="pdAyzXSSUI1pdt9ZqddD-3" value="0" style="text;html=1;align=center;verticalAlign=middle;whiteSpace=wrap;rounded=0;" vertex="1" parent="Loq4wzwwRcOsAHtzaIZx-8">
          <mxGeometry x="20" y="50" width="60" height="30" as="geometry" />
        </mxCell>
        <mxCell id="pdAyzXSSUI1pdt9ZqddD-4" value="0" style="text;html=1;align=center;verticalAlign=middle;whiteSpace=wrap;rounded=0;" vertex="1" parent="Loq4wzwwRcOsAHtzaIZx-8">
          <mxGeometry x="20" width="60" height="30" as="geometry" />
        </mxCell>
        <mxCell id="pdAyzXSSUI1pdt9ZqddD-5" value="0" style="text;html=1;align=center;verticalAlign=middle;whiteSpace=wrap;rounded=0;" vertex="1" parent="Loq4wzwwRcOsAHtzaIZx-8">
          <mxGeometry y="25" width="60" height="30" as="geometry" />
        </mxCell>
        <mxCell id="Loq4wzwwRcOsAHtzaIZx-9" value="0" style="text;html=1;strokeColor=none;fillColor=none;align=center;verticalAlign=middle;whiteSpace=wrap;rounded=0;" vertex="1" parent="Loq4wzwwRcOsAHtzaIZx-8">
          <mxGeometry x="40" y="25" width="60" height="30" as="geometry" />
        </mxCell>
        <mxCell id="pdAyzXSSUI1pdt9ZqddD-16" value="A1" style="text;html=1;strokeColor=none;fillColor=none;align=center;verticalAlign=middle;whiteSpace=wrap;rounded=0;" vertex="1" parent="1">
          <mxGeometry x="110" y="555" width="60" height="30" as="geometry" />
        </mxCell>
        <mxCell id="pdAyzXSSUI1pdt9ZqddD-78" value="" style="endArrow=classic;html=1;rounded=0;entryX=0;entryY=0.5;entryDx=0;entryDy=0;exitX=0;exitY=1;exitDx=0;exitDy=0;" edge="1" parent="1" source="pdAyzXSSUI1pdt9ZqddD-16">
          <mxGeometry width="50" height="50" relative="1" as="geometry">
            <mxPoint x="110" y="590" as="sourcePoint" />
            <mxPoint x="170" y="585" as="targetPoint" />
          </mxGeometry>
        </mxCell>
        <mxCell id="Loq4wzwwRcOsAHtzaIZx-10" value="" style="group" connectable="0" vertex="1" parent="1">
          <mxGeometry x="160" y="545" width="100" height="80" as="geometry" />
        </mxCell>
        <mxCell id="Loq4wzwwRcOsAHtzaIZx-11" value="0" style="text;html=1;align=center;verticalAlign=middle;whiteSpace=wrap;rounded=0;" vertex="1" parent="Loq4wzwwRcOsAHtzaIZx-10">
          <mxGeometry x="40" y="25" width="60" height="30" as="geometry" />
        </mxCell>
        <mxCell id="Loq4wzwwRcOsAHtzaIZx-12" value="" style="group" connectable="0" vertex="1" parent="Loq4wzwwRcOsAHtzaIZx-10">
          <mxGeometry width="100" height="80" as="geometry" />
        </mxCell>
        <mxCell id="Loq4wzwwRcOsAHtzaIZx-13" value="" style="shape=sumEllipse;perimeter=ellipsePerimeter;whiteSpace=wrap;html=1;backgroundOutline=1;fillColor=#fff2cc;strokeColor=#d6b656;" vertex="1" parent="Loq4wzwwRcOsAHtzaIZx-12">
          <mxGeometry x="10" width="80" height="80" as="geometry" />
        </mxCell>
        <mxCell id="Loq4wzwwRcOsAHtzaIZx-14" value="1" style="text;html=1;align=center;verticalAlign=middle;whiteSpace=wrap;rounded=0;" vertex="1" parent="Loq4wzwwRcOsAHtzaIZx-12">
          <mxGeometry x="20" y="50" width="60" height="30" as="geometry" />
        </mxCell>
        <mxCell id="Loq4wzwwRcOsAHtzaIZx-15" value="0" style="text;html=1;align=center;verticalAlign=middle;whiteSpace=wrap;rounded=0;" vertex="1" parent="Loq4wzwwRcOsAHtzaIZx-12">
          <mxGeometry x="20" width="60" height="30" as="geometry" />
        </mxCell>
        <mxCell id="Loq4wzwwRcOsAHtzaIZx-16" value="1" style="text;html=1;align=center;verticalAlign=middle;whiteSpace=wrap;rounded=0;" vertex="1" parent="Loq4wzwwRcOsAHtzaIZx-12">
          <mxGeometry y="25" width="60" height="30" as="geometry" />
        </mxCell>
        <mxCell id="Loq4wzwwRcOsAHtzaIZx-17" value="1" style="text;html=1;strokeColor=none;fillColor=none;align=center;verticalAlign=middle;whiteSpace=wrap;rounded=0;" vertex="1" parent="Loq4wzwwRcOsAHtzaIZx-12">
          <mxGeometry x="40" y="25" width="60" height="30" as="geometry" />
        </mxCell>
        <mxCell id="Loq4wzwwRcOsAHtzaIZx-18" value="" style="group" connectable="0" vertex="1" parent="1">
          <mxGeometry x="180" y="1010" width="100" height="80" as="geometry" />
        </mxCell>
        <mxCell id="Loq4wzwwRcOsAHtzaIZx-19" value="0" style="text;html=1;align=center;verticalAlign=middle;whiteSpace=wrap;rounded=0;" vertex="1" parent="Loq4wzwwRcOsAHtzaIZx-18">
          <mxGeometry x="40" y="25" width="60" height="30" as="geometry" />
        </mxCell>
        <mxCell id="Loq4wzwwRcOsAHtzaIZx-20" value="" style="group" connectable="0" vertex="1" parent="Loq4wzwwRcOsAHtzaIZx-18">
          <mxGeometry width="100" height="80" as="geometry" />
        </mxCell>
        <mxCell id="Loq4wzwwRcOsAHtzaIZx-21" value="" style="shape=sumEllipse;perimeter=ellipsePerimeter;whiteSpace=wrap;html=1;backgroundOutline=1;fillColor=#fff2cc;strokeColor=#d6b656;" vertex="1" parent="Loq4wzwwRcOsAHtzaIZx-20">
          <mxGeometry x="10" width="80" height="80" as="geometry" />
        </mxCell>
        <mxCell id="JG07l5RM8xytLAkRtf2T-1" value="0" style="text;html=1;align=center;verticalAlign=middle;whiteSpace=wrap;rounded=0;" vertex="1" parent="Loq4wzwwRcOsAHtzaIZx-20">
          <mxGeometry x="40" y="50" width="20" height="20" as="geometry" />
        </mxCell>
        <mxCell id="Loq4wzwwRcOsAHtzaIZx-22" value="0" style="text;html=1;align=center;verticalAlign=middle;whiteSpace=wrap;rounded=0;" vertex="1" parent="Loq4wzwwRcOsAHtzaIZx-20">
          <mxGeometry x="20" y="30" width="20" height="20" as="geometry" />
        </mxCell>
        <mxCell id="JG07l5RM8xytLAkRtf2T-3" value="0" style="text;html=1;align=center;verticalAlign=middle;whiteSpace=wrap;rounded=0;" vertex="1" parent="Loq4wzwwRcOsAHtzaIZx-20">
          <mxGeometry x="60" y="30" width="20" height="20" as="geometry" />
        </mxCell>
        <mxCell id="JG07l5RM8xytLAkRtf2T-2" value="0" style="text;html=1;align=center;verticalAlign=middle;whiteSpace=wrap;rounded=0;" vertex="1" parent="Loq4wzwwRcOsAHtzaIZx-20">
          <mxGeometry x="40" y="10" width="20" height="20" as="geometry" />
        </mxCell>
        <mxCell id="Evy_VJ2f85a_wjDh4gpD-9" value="0" style="text;html=1;align=center;verticalAlign=middle;whiteSpace=wrap;rounded=0;" vertex="1" parent="1">
          <mxGeometry x="440" y="375" width="60" height="30" as="geometry" />
        </mxCell>
        <mxCell id="Evy_VJ2f85a_wjDh4gpD-10" value="" style="shape=sumEllipse;perimeter=ellipsePerimeter;whiteSpace=wrap;html=1;backgroundOutline=1;fillColor=#fff2cc;strokeColor=#d6b656;" vertex="1" parent="1">
          <mxGeometry x="410" y="350" width="80" height="80" as="geometry" />
        </mxCell>
        <mxCell id="Evy_VJ2f85a_wjDh4gpD-12" value="1" style="text;html=1;align=center;verticalAlign=middle;whiteSpace=wrap;rounded=0;" vertex="1" parent="1">
          <mxGeometry x="420" y="350" width="60" height="30" as="geometry" />
        </mxCell>
        <mxCell id="Evy_VJ2f85a_wjDh4gpD-13" value="3" style="text;html=1;strokeColor=none;fillColor=none;align=center;verticalAlign=middle;whiteSpace=wrap;rounded=0;" vertex="1" parent="1">
          <mxGeometry x="444" y="375" width="60" height="30" as="geometry" />
        </mxCell>
        <mxCell id="Evy_VJ2f85a_wjDh4gpD-14" value="" style="endArrow=classic;html=1;rounded=0;exitX=0.5;exitY=0;exitDx=0;exitDy=0;entryX=0;entryY=0.5;entryDx=0;entryDy=0;" edge="1" parent="1" source="Loq4wzwwRcOsAHtzaIZx-15" target="Evy_VJ2f85a_wjDh4gpD-10">
          <mxGeometry width="50" height="50" relative="1" as="geometry">
            <mxPoint x="210" y="510" as="sourcePoint" />
            <mxPoint x="280" y="510" as="targetPoint" />
            <Array as="points">
              <mxPoint x="270" y="390" />
            </Array>
          </mxGeometry>
        </mxCell>
        <mxCell id="Evy_VJ2f85a_wjDh4gpD-15" value="A2" style="text;html=1;strokeColor=none;fillColor=none;align=center;verticalAlign=middle;whiteSpace=wrap;rounded=0;" vertex="1" parent="1">
          <mxGeometry x="200" y="430" width="60" height="30" as="geometry" />
        </mxCell>
        <mxCell id="Evy_VJ2f85a_wjDh4gpD-17" value="" style="endArrow=classic;html=1;rounded=0;exitX=0.75;exitY=1;exitDx=0;exitDy=0;entryX=0.206;entryY=0.978;entryDx=0;entryDy=0;entryPerimeter=0;" edge="1" parent="1" source="Loq4wzwwRcOsAHtzaIZx-17" target="Evy_VJ2f85a_wjDh4gpD-7">
          <mxGeometry width="50" height="50" relative="1" as="geometry">
            <mxPoint x="250" y="600" as="sourcePoint" />
            <mxPoint x="320" y="600" as="targetPoint" />
          </mxGeometry>
        </mxCell>
        <mxCell id="Evy_VJ2f85a_wjDh4gpD-18" value="" style="endArrow=classic;html=1;rounded=0;entryX=0.1;entryY=0.229;entryDx=0;entryDy=0;entryPerimeter=0;exitX=1.05;exitY=0.656;exitDx=0;exitDy=0;exitPerimeter=0;" edge="1" parent="1" source="Loq4wzwwRcOsAHtzaIZx-15" target="Evy_VJ2f85a_wjDh4gpD-4">
          <mxGeometry width="50" height="50" relative="1" as="geometry">
            <mxPoint x="250" y="560" as="sourcePoint" />
            <mxPoint x="348.69999999999993" y="560.4499999999999" as="targetPoint" />
            <Array as="points">
              <mxPoint x="260" y="520" />
              <mxPoint x="380" y="520" />
            </Array>
          </mxGeometry>
        </mxCell>
        <mxCell id="Evy_VJ2f85a_wjDh4gpD-19" value="" style="endArrow=classic;html=1;rounded=0;exitX=0.678;exitY=0.989;exitDx=0;exitDy=0;entryX=0.339;entryY=0.933;entryDx=0;entryDy=0;entryPerimeter=0;exitPerimeter=0;" edge="1" parent="1" source="Loq4wzwwRcOsAHtzaIZx-14" target="Evy_VJ2f85a_wjDh4gpD-5">
          <mxGeometry width="50" height="50" relative="1" as="geometry">
            <mxPoint x="280" y="610" as="sourcePoint" />
            <mxPoint x="397" y="609" as="targetPoint" />
            <Array as="points">
              <mxPoint x="221" y="650" />
              <mxPoint x="410" y="650" />
            </Array>
          </mxGeometry>
        </mxCell>
        <mxCell id="Evy_VJ2f85a_wjDh4gpD-21" value="A3" style="text;html=1;strokeColor=none;fillColor=none;align=center;verticalAlign=middle;whiteSpace=wrap;rounded=0;" vertex="1" parent="1">
          <mxGeometry x="320" y="545" width="60" height="30" as="geometry" />
        </mxCell>
        <mxCell id="Evy_VJ2f85a_wjDh4gpD-22" value="" style="endArrow=block;dashed=1;endFill=0;endSize=12;html=1;rounded=0;exitX=0.5;exitY=1;exitDx=0;exitDy=0;entryX=0.5;entryY=0;entryDx=0;entryDy=0;" edge="1" parent="1" source="Evy_VJ2f85a_wjDh4gpD-11" target="Evy_VJ2f85a_wjDh4gpD-24">
          <mxGeometry width="160" relative="1" as="geometry">
            <mxPoint x="280" y="560" as="sourcePoint" />
            <mxPoint x="440" y="560" as="targetPoint" />
          </mxGeometry>
        </mxCell>
        <mxCell id="Evy_VJ2f85a_wjDh4gpD-26" value="&quot;A2&quot;" style="text;html=1;strokeColor=none;fillColor=none;align=center;verticalAlign=middle;whiteSpace=wrap;rounded=0;" vertex="1" parent="1">
          <mxGeometry x="400" y="470" width="60" height="30" as="geometry" />
        </mxCell>
        <mxCell id="Evy_VJ2f85a_wjDh4gpD-28" value="A4" style="text;html=1;strokeColor=none;fillColor=none;align=center;verticalAlign=middle;whiteSpace=wrap;rounded=0;" vertex="1" parent="1">
          <mxGeometry x="320" y="595" width="60" height="30" as="geometry" />
        </mxCell>
        <mxCell id="Evy_VJ2f85a_wjDh4gpD-29" value="A5" style="text;html=1;strokeColor=none;fillColor=none;align=center;verticalAlign=middle;whiteSpace=wrap;rounded=0;" vertex="1" parent="1">
          <mxGeometry x="320" y="650" width="60" height="30" as="geometry" />
        </mxCell>
        <mxCell id="Evy_VJ2f85a_wjDh4gpD-31" value="" style="endArrow=classic;html=1;rounded=0;exitX=0.25;exitY=1;exitDx=0;exitDy=0;entryX=0;entryY=0.5;entryDx=0;entryDy=0;" edge="1" parent="1" source="Loq4wzwwRcOsAHtzaIZx-14" target="Evy_VJ2f85a_wjDh4gpD-37">
          <mxGeometry width="50" height="50" relative="1" as="geometry">
            <mxPoint x="230" y="755" as="sourcePoint" />
            <mxPoint x="430" y="750" as="targetPoint" />
            <Array as="points">
              <mxPoint x="195" y="750" />
            </Array>
          </mxGeometry>
        </mxCell>
        <mxCell id="Evy_VJ2f85a_wjDh4gpD-32" value="" style="group" connectable="0" vertex="1" parent="1">
          <mxGeometry x="360" y="1110" width="100" height="80" as="geometry" />
        </mxCell>
        <mxCell id="Evy_VJ2f85a_wjDh4gpD-33" value="0" style="text;html=1;align=center;verticalAlign=middle;whiteSpace=wrap;rounded=0;" vertex="1" parent="Evy_VJ2f85a_wjDh4gpD-32">
          <mxGeometry x="40" y="25" width="60" height="30" as="geometry" />
        </mxCell>
        <mxCell id="Evy_VJ2f85a_wjDh4gpD-34" value="" style="group" connectable="0" vertex="1" parent="Evy_VJ2f85a_wjDh4gpD-32">
          <mxGeometry width="100" height="80" as="geometry" />
        </mxCell>
        <mxCell id="Evy_VJ2f85a_wjDh4gpD-35" value="" style="shape=sumEllipse;perimeter=ellipsePerimeter;whiteSpace=wrap;html=1;backgroundOutline=1;fillColor=#fff2cc;strokeColor=#d6b656;" vertex="1" parent="Evy_VJ2f85a_wjDh4gpD-34">
          <mxGeometry x="10" width="80" height="80" as="geometry" />
        </mxCell>
        <mxCell id="Evy_VJ2f85a_wjDh4gpD-36" value="2" style="text;html=1;align=center;verticalAlign=middle;whiteSpace=wrap;rounded=0;" vertex="1" parent="Evy_VJ2f85a_wjDh4gpD-34">
          <mxGeometry x="20" y="50" width="60" height="30" as="geometry" />
        </mxCell>
        <mxCell id="Evy_VJ2f85a_wjDh4gpD-37" value="3" style="text;html=1;align=center;verticalAlign=middle;whiteSpace=wrap;rounded=0;" vertex="1" parent="Evy_VJ2f85a_wjDh4gpD-34">
          <mxGeometry x="20" width="60" height="30" as="geometry" />
        </mxCell>
        <mxCell id="Evy_VJ2f85a_wjDh4gpD-38" value="5" style="text;html=1;align=center;verticalAlign=middle;whiteSpace=wrap;rounded=0;" vertex="1" parent="Evy_VJ2f85a_wjDh4gpD-34">
          <mxGeometry y="25" width="60" height="30" as="geometry" />
        </mxCell>
        <mxCell id="Evy_VJ2f85a_wjDh4gpD-39" value="8" style="text;html=1;strokeColor=none;fillColor=none;align=center;verticalAlign=middle;whiteSpace=wrap;rounded=0;" vertex="1" parent="Evy_VJ2f85a_wjDh4gpD-34">
          <mxGeometry x="40" y="25" width="60" height="30" as="geometry" />
        </mxCell>
        <mxCell id="Evy_VJ2f85a_wjDh4gpD-40" value="E1" style="text;html=1;strokeColor=none;fillColor=none;align=center;verticalAlign=middle;whiteSpace=wrap;rounded=0;" vertex="1" parent="1">
          <mxGeometry x="260" y="790" width="60" height="30" as="geometry" />
        </mxCell>
        <mxCell id="Evy_VJ2f85a_wjDh4gpD-41" value="2" style="text;html=1;strokeColor=none;fillColor=none;align=center;verticalAlign=middle;whiteSpace=wrap;rounded=0;" vertex="1" parent="1">
          <mxGeometry x="400" y="375" width="60" height="30" as="geometry" />
        </mxCell>
        <mxCell id="Evy_VJ2f85a_wjDh4gpD-42" value="" style="endArrow=classic;html=1;rounded=0;" edge="1" parent="1" source="Evy_VJ2f85a_wjDh4gpD-5">
          <mxGeometry width="50" height="50" relative="1" as="geometry">
            <mxPoint x="480" y="630" as="sourcePoint" />
            <mxPoint x="530" y="880" as="targetPoint" />
            <Array as="points">
              <mxPoint x="450" y="850" />
            </Array>
          </mxGeometry>
        </mxCell>
        <mxCell id="Evy_VJ2f85a_wjDh4gpD-43" value="" style="group" connectable="0" vertex="1" parent="1">
          <mxGeometry x="520" y="835" width="100" height="80" as="geometry" />
        </mxCell>
        <mxCell id="Evy_VJ2f85a_wjDh4gpD-44" value="0" style="text;html=1;align=center;verticalAlign=middle;whiteSpace=wrap;rounded=0;" vertex="1" parent="Evy_VJ2f85a_wjDh4gpD-43">
          <mxGeometry x="40" y="25" width="60" height="30" as="geometry" />
        </mxCell>
        <mxCell id="Evy_VJ2f85a_wjDh4gpD-45" value="" style="group" connectable="0" vertex="1" parent="Evy_VJ2f85a_wjDh4gpD-43">
          <mxGeometry width="100" height="80" as="geometry" />
        </mxCell>
        <mxCell id="Evy_VJ2f85a_wjDh4gpD-46" value="" style="shape=sumEllipse;perimeter=ellipsePerimeter;whiteSpace=wrap;html=1;backgroundOutline=1;fillColor=#fff2cc;strokeColor=#d6b656;" vertex="1" parent="Evy_VJ2f85a_wjDh4gpD-45">
          <mxGeometry x="10" width="80" height="80" as="geometry" />
        </mxCell>
        <mxCell id="Evy_VJ2f85a_wjDh4gpD-47" value="3" style="text;html=1;align=center;verticalAlign=middle;whiteSpace=wrap;rounded=0;" vertex="1" parent="Evy_VJ2f85a_wjDh4gpD-45">
          <mxGeometry x="20" y="50" width="60" height="30" as="geometry" />
        </mxCell>
        <mxCell id="Evy_VJ2f85a_wjDh4gpD-48" value="0" style="text;html=1;align=center;verticalAlign=middle;whiteSpace=wrap;rounded=0;" vertex="1" parent="Evy_VJ2f85a_wjDh4gpD-45">
          <mxGeometry x="20" width="60" height="50" as="geometry" />
        </mxCell>
        <mxCell id="Evy_VJ2f85a_wjDh4gpD-49" value="5" style="text;html=1;align=center;verticalAlign=middle;whiteSpace=wrap;rounded=0;" vertex="1" parent="Evy_VJ2f85a_wjDh4gpD-45">
          <mxGeometry y="25" width="60" height="30" as="geometry" />
        </mxCell>
        <mxCell id="Evy_VJ2f85a_wjDh4gpD-50" value="5" style="text;html=1;strokeColor=none;fillColor=none;align=center;verticalAlign=middle;whiteSpace=wrap;rounded=0;" vertex="1" parent="Evy_VJ2f85a_wjDh4gpD-45">
          <mxGeometry x="40" y="25" width="60" height="30" as="geometry" />
        </mxCell>
        <mxCell id="Evy_VJ2f85a_wjDh4gpD-51" value="A6" style="text;html=1;strokeColor=none;fillColor=none;align=center;verticalAlign=middle;whiteSpace=wrap;rounded=0;" vertex="1" parent="1">
          <mxGeometry x="470" y="830" width="60" height="30" as="geometry" />
        </mxCell>
        <mxCell id="Evy_VJ2f85a_wjDh4gpD-52" value="" style="endArrow=block;dashed=1;endFill=0;endSize=12;html=1;rounded=0;exitX=0.5;exitY=0;exitDx=0;exitDy=0;" edge="1" parent="1" source="pdAyzXSSUI1pdt9ZqddD-4" target="Evy_VJ2f85a_wjDh4gpD-58">
          <mxGeometry width="160" relative="1" as="geometry">
            <mxPoint x="460" y="440" as="sourcePoint" />
            <mxPoint x="560" y="250" as="targetPoint" />
            <Array as="points">
              <mxPoint x="180" y="250" />
              <mxPoint x="630" y="250" />
            </Array>
          </mxGeometry>
        </mxCell>
        <mxCell id="Evy_VJ2f85a_wjDh4gpD-53" value="" style="group" connectable="0" vertex="1" parent="1">
          <mxGeometry x="670" y="350" width="100" height="80" as="geometry" />
        </mxCell>
        <mxCell id="Evy_VJ2f85a_wjDh4gpD-54" value="0" style="text;html=1;align=center;verticalAlign=middle;whiteSpace=wrap;rounded=0;" vertex="1" parent="Evy_VJ2f85a_wjDh4gpD-53">
          <mxGeometry x="40" y="25" width="60" height="30" as="geometry" />
        </mxCell>
        <mxCell id="Evy_VJ2f85a_wjDh4gpD-55" value="" style="group" connectable="0" vertex="1" parent="Evy_VJ2f85a_wjDh4gpD-53">
          <mxGeometry width="100" height="80" as="geometry" />
        </mxCell>
        <mxCell id="Evy_VJ2f85a_wjDh4gpD-56" value="" style="shape=sumEllipse;perimeter=ellipsePerimeter;whiteSpace=wrap;html=1;backgroundOutline=1;fillColor=#fff2cc;strokeColor=#d6b656;" vertex="1" parent="Evy_VJ2f85a_wjDh4gpD-55">
          <mxGeometry x="10" width="80" height="80" as="geometry" />
        </mxCell>
        <mxCell id="Evy_VJ2f85a_wjDh4gpD-57" value="3" style="text;html=1;align=center;verticalAlign=middle;whiteSpace=wrap;rounded=0;" vertex="1" parent="Evy_VJ2f85a_wjDh4gpD-55">
          <mxGeometry x="20" y="50" width="60" height="30" as="geometry" />
        </mxCell>
        <mxCell id="Evy_VJ2f85a_wjDh4gpD-58" value="1" style="text;html=1;align=center;verticalAlign=middle;whiteSpace=wrap;rounded=0;" vertex="1" parent="Evy_VJ2f85a_wjDh4gpD-55">
          <mxGeometry x="20" width="60" height="30" as="geometry" />
        </mxCell>
        <mxCell id="Evy_VJ2f85a_wjDh4gpD-59" value="4" style="text;html=1;align=center;verticalAlign=middle;whiteSpace=wrap;rounded=0;" vertex="1" parent="Evy_VJ2f85a_wjDh4gpD-55">
          <mxGeometry y="25" width="60" height="30" as="geometry" />
        </mxCell>
        <mxCell id="Evy_VJ2f85a_wjDh4gpD-60" value="5" style="text;html=1;strokeColor=none;fillColor=none;align=center;verticalAlign=middle;whiteSpace=wrap;rounded=0;" vertex="1" parent="Evy_VJ2f85a_wjDh4gpD-55">
          <mxGeometry x="40" y="25" width="60" height="30" as="geometry" />
        </mxCell>
        <mxCell id="Evy_VJ2f85a_wjDh4gpD-62" value="A8" style="text;html=1;strokeColor=none;fillColor=none;align=center;verticalAlign=middle;whiteSpace=wrap;rounded=0;" vertex="1" parent="1">
          <mxGeometry x="560" y="400" width="60" height="30" as="geometry" />
        </mxCell>
        <mxCell id="Evy_VJ2f85a_wjDh4gpD-67" value="&quot;A1&quot;" style="text;html=1;strokeColor=none;fillColor=none;align=center;verticalAlign=middle;whiteSpace=wrap;rounded=0;" vertex="1" parent="1">
          <mxGeometry x="354" y="251" width="60" height="30" as="geometry" />
        </mxCell>
        <mxCell id="Evy_VJ2f85a_wjDh4gpD-11" value="2" style="text;html=1;align=center;verticalAlign=middle;whiteSpace=wrap;rounded=0;" vertex="1" parent="1">
          <mxGeometry x="420" y="400" width="60" height="30" as="geometry" />
        </mxCell>
        <mxCell id="Evy_VJ2f85a_wjDh4gpD-68" value="" style="group" connectable="0" vertex="1" parent="1">
          <mxGeometry x="660" y="550" width="110" height="80" as="geometry" />
        </mxCell>
        <mxCell id="Evy_VJ2f85a_wjDh4gpD-70" value="" style="group" connectable="0" vertex="1" parent="Evy_VJ2f85a_wjDh4gpD-68">
          <mxGeometry width="110" height="80" as="geometry" />
        </mxCell>
        <mxCell id="Evy_VJ2f85a_wjDh4gpD-69" value="0" style="text;html=1;align=center;verticalAlign=middle;whiteSpace=wrap;rounded=0;" vertex="1" parent="Evy_VJ2f85a_wjDh4gpD-70">
          <mxGeometry x="50" y="25" width="60" height="30" as="geometry" />
        </mxCell>
        <mxCell id="Evy_VJ2f85a_wjDh4gpD-71" value="" style="shape=sumEllipse;perimeter=ellipsePerimeter;whiteSpace=wrap;html=1;backgroundOutline=1;fillColor=#fff2cc;strokeColor=#d6b656;" vertex="1" parent="Evy_VJ2f85a_wjDh4gpD-70">
          <mxGeometry x="20" width="80" height="80" as="geometry" />
        </mxCell>
        <mxCell id="Evy_VJ2f85a_wjDh4gpD-72" value="3" style="text;html=1;align=center;verticalAlign=middle;whiteSpace=wrap;rounded=0;" vertex="1" parent="Evy_VJ2f85a_wjDh4gpD-70">
          <mxGeometry x="30" y="50" width="60" height="30" as="geometry" />
        </mxCell>
        <mxCell id="Evy_VJ2f85a_wjDh4gpD-73" value="9" style="text;html=1;align=center;verticalAlign=middle;whiteSpace=wrap;rounded=0;" vertex="1" parent="Evy_VJ2f85a_wjDh4gpD-70">
          <mxGeometry x="30" width="60" height="30" as="geometry" />
        </mxCell>
        <mxCell id="Evy_VJ2f85a_wjDh4gpD-74" value="3" style="text;html=1;align=center;verticalAlign=middle;whiteSpace=wrap;rounded=0;" vertex="1" parent="Evy_VJ2f85a_wjDh4gpD-70">
          <mxGeometry x="20" y="25" width="30" height="30" as="geometry" />
        </mxCell>
        <mxCell id="Evy_VJ2f85a_wjDh4gpD-75" value="12" style="text;html=1;strokeColor=none;fillColor=none;align=center;verticalAlign=middle;whiteSpace=wrap;rounded=0;" vertex="1" parent="Evy_VJ2f85a_wjDh4gpD-70">
          <mxGeometry x="70" y="25" width="30" height="30" as="geometry" />
        </mxCell>
        <mxCell id="Evy_VJ2f85a_wjDh4gpD-76" value="" style="endArrow=classic;html=1;rounded=0;exitX=1;exitY=0.5;exitDx=0;exitDy=0;entryX=0;entryY=0.5;entryDx=0;entryDy=0;" edge="1" parent="1" source="Evy_VJ2f85a_wjDh4gpD-5" target="Evy_VJ2f85a_wjDh4gpD-72">
          <mxGeometry width="50" height="50" relative="1" as="geometry">
            <mxPoint x="503" y="621" as="sourcePoint" />
            <mxPoint x="670" y="620" as="targetPoint" />
          </mxGeometry>
        </mxCell>
        <mxCell id="Evy_VJ2f85a_wjDh4gpD-77" value="A10" style="text;html=1;strokeColor=none;fillColor=none;align=center;verticalAlign=middle;whiteSpace=wrap;rounded=0;" vertex="1" parent="1">
          <mxGeometry x="540" y="610" width="60" height="30" as="geometry" />
        </mxCell>
        <mxCell id="Evy_VJ2f85a_wjDh4gpD-79" value="" style="endArrow=classic;html=1;rounded=0;exitX=1;exitY=0.5;exitDx=0;exitDy=0;entryX=0.167;entryY=0.5;entryDx=0;entryDy=0;entryPerimeter=0;" edge="1" parent="1" target="Evy_VJ2f85a_wjDh4gpD-74">
          <mxGeometry width="50" height="50" relative="1" as="geometry">
            <mxPoint x="490" y="587.5" as="sourcePoint" />
            <mxPoint x="660" y="590" as="targetPoint" />
          </mxGeometry>
        </mxCell>
        <mxCell id="Evy_VJ2f85a_wjDh4gpD-80" value="A9" style="text;html=1;strokeColor=none;fillColor=none;align=center;verticalAlign=middle;whiteSpace=wrap;rounded=0;" vertex="1" parent="1">
          <mxGeometry x="540" y="582.5" width="60" height="30" as="geometry" />
        </mxCell>
        <mxCell id="Evy_VJ2f85a_wjDh4gpD-81" value="A11" style="text;html=1;strokeColor=none;fillColor=none;align=center;verticalAlign=middle;whiteSpace=wrap;rounded=0;" vertex="1" parent="1">
          <mxGeometry x="540" y="555" width="60" height="30" as="geometry" />
        </mxCell>
        <mxCell id="Evy_VJ2f85a_wjDh4gpD-82" value="" style="endArrow=classic;html=1;rounded=0;entryX=0;entryY=0.5;entryDx=0;entryDy=0;" edge="1" parent="1" source="Evy_VJ2f85a_wjDh4gpD-24" target="Evy_VJ2f85a_wjDh4gpD-73">
          <mxGeometry width="50" height="50" relative="1" as="geometry">
            <mxPoint x="485" y="563.75" as="sourcePoint" />
            <mxPoint x="670" y="560" as="targetPoint" />
          </mxGeometry>
        </mxCell>
        <mxCell id="Evy_VJ2f85a_wjDh4gpD-85" value="B1" style="text;html=1;strokeColor=none;fillColor=none;align=center;verticalAlign=middle;whiteSpace=wrap;rounded=0;" vertex="1" parent="1">
          <mxGeometry x="820" y="375" width="60" height="30" as="geometry" />
        </mxCell>
        <mxCell id="Evy_VJ2f85a_wjDh4gpD-86" value="B4" style="text;html=1;strokeColor=none;fillColor=none;align=center;verticalAlign=middle;whiteSpace=wrap;rounded=0;" vertex="1" parent="1">
          <mxGeometry x="820" y="420" width="60" height="30" as="geometry" />
        </mxCell>
        <mxCell id="JG07l5RM8xytLAkRtf2T-4" value="" style="group" connectable="0" vertex="1" parent="1">
          <mxGeometry x="950" y="345" width="100" height="90" as="geometry" />
        </mxCell>
        <mxCell id="JG07l5RM8xytLAkRtf2T-6" value="" style="group" connectable="0" vertex="1" parent="JG07l5RM8xytLAkRtf2T-4">
          <mxGeometry width="100" height="90" as="geometry" />
        </mxCell>
        <mxCell id="JG07l5RM8xytLAkRtf2T-5" value="0" style="text;html=1;align=center;verticalAlign=middle;whiteSpace=wrap;rounded=0;" vertex="1" parent="JG07l5RM8xytLAkRtf2T-6">
          <mxGeometry x="30" y="35" width="60" height="30" as="geometry" />
        </mxCell>
        <mxCell id="JG07l5RM8xytLAkRtf2T-7" value="" style="shape=sumEllipse;perimeter=ellipsePerimeter;whiteSpace=wrap;html=1;backgroundOutline=1;fillColor=#fff2cc;strokeColor=#d6b656;" vertex="1" parent="JG07l5RM8xytLAkRtf2T-6">
          <mxGeometry y="10" width="80" height="80" as="geometry" />
        </mxCell>
        <mxCell id="JG07l5RM8xytLAkRtf2T-8" value="4" style="text;html=1;align=center;verticalAlign=middle;whiteSpace=wrap;rounded=0;" vertex="1" parent="JG07l5RM8xytLAkRtf2T-6">
          <mxGeometry x="30" y="60" width="20" height="20" as="geometry" />
        </mxCell>
        <mxCell id="JG07l5RM8xytLAkRtf2T-9" value="5" style="text;html=1;align=center;verticalAlign=middle;whiteSpace=wrap;rounded=0;" vertex="1" parent="JG07l5RM8xytLAkRtf2T-6">
          <mxGeometry x="10" y="40" width="20" height="20" as="geometry" />
        </mxCell>
        <mxCell id="JG07l5RM8xytLAkRtf2T-10" value="6" style="text;html=1;align=center;verticalAlign=middle;whiteSpace=wrap;rounded=0;" vertex="1" parent="JG07l5RM8xytLAkRtf2T-6">
          <mxGeometry x="50" y="40" width="20" height="20" as="geometry" />
        </mxCell>
        <mxCell id="JG07l5RM8xytLAkRtf2T-11" value="1" style="text;html=1;align=center;verticalAlign=middle;whiteSpace=wrap;rounded=0;" vertex="1" parent="JG07l5RM8xytLAkRtf2T-6">
          <mxGeometry x="30" y="20" width="20" height="10" as="geometry" />
        </mxCell>
        <mxCell id="JG07l5RM8xytLAkRtf2T-14" value="" style="endArrow=classic;html=1;rounded=0;exitX=0.667;exitY=0.167;exitDx=0;exitDy=0;exitPerimeter=0;" edge="1" parent="1">
          <mxGeometry width="50" height="50" relative="1" as="geometry">
            <mxPoint x="1030" y="389.5" as="sourcePoint" />
            <mxPoint x="1230" y="389.5" as="targetPoint" />
            <Array as="points">
              <mxPoint x="1140" y="389.5" />
            </Array>
          </mxGeometry>
        </mxCell>
        <mxCell id="JG07l5RM8xytLAkRtf2T-15" value="B2" style="text;html=1;strokeColor=none;fillColor=none;align=center;verticalAlign=middle;whiteSpace=wrap;rounded=0;" vertex="1" parent="1">
          <mxGeometry x="1100" y="390" width="60" height="30" as="geometry" />
        </mxCell>
        <mxCell id="JG07l5RM8xytLAkRtf2T-17" value="" style="group" connectable="0" vertex="1" parent="1">
          <mxGeometry x="1230" y="335" width="100" height="90" as="geometry" />
        </mxCell>
        <mxCell id="JG07l5RM8xytLAkRtf2T-18" value="" style="group" connectable="0" vertex="1" parent="JG07l5RM8xytLAkRtf2T-17">
          <mxGeometry width="100" height="90" as="geometry" />
        </mxCell>
        <mxCell id="JG07l5RM8xytLAkRtf2T-19" value="0" style="text;html=1;align=center;verticalAlign=middle;whiteSpace=wrap;rounded=0;" vertex="1" parent="JG07l5RM8xytLAkRtf2T-18">
          <mxGeometry x="30" y="35" width="60" height="30" as="geometry" />
        </mxCell>
        <mxCell id="JG07l5RM8xytLAkRtf2T-20" value="" style="shape=sumEllipse;perimeter=ellipsePerimeter;whiteSpace=wrap;html=1;backgroundOutline=1;fillColor=#fff2cc;strokeColor=#d6b656;" vertex="1" parent="JG07l5RM8xytLAkRtf2T-18">
          <mxGeometry y="10" width="80" height="80" as="geometry" />
        </mxCell>
        <mxCell id="JG07l5RM8xytLAkRtf2T-21" value="5" style="text;html=1;align=center;verticalAlign=middle;whiteSpace=wrap;rounded=0;" vertex="1" parent="JG07l5RM8xytLAkRtf2T-18">
          <mxGeometry x="30" y="60" width="20" height="20" as="geometry" />
        </mxCell>
        <mxCell id="JG07l5RM8xytLAkRtf2T-22" value="7" style="text;html=1;align=center;verticalAlign=middle;whiteSpace=wrap;rounded=0;" vertex="1" parent="JG07l5RM8xytLAkRtf2T-18">
          <mxGeometry x="10" y="40" width="20" height="20" as="geometry" />
        </mxCell>
        <mxCell id="JG07l5RM8xytLAkRtf2T-23" value="8" style="text;html=1;align=center;verticalAlign=middle;whiteSpace=wrap;rounded=0;" vertex="1" parent="JG07l5RM8xytLAkRtf2T-18">
          <mxGeometry x="50" y="40" width="20" height="20" as="geometry" />
        </mxCell>
        <mxCell id="JG07l5RM8xytLAkRtf2T-24" value="1" style="text;html=1;align=center;verticalAlign=middle;whiteSpace=wrap;rounded=0;" vertex="1" parent="JG07l5RM8xytLAkRtf2T-18">
          <mxGeometry x="30" y="20" width="20" height="10" as="geometry" />
        </mxCell>
        <mxCell id="JG07l5RM8xytLAkRtf2T-25" value="" style="endArrow=block;dashed=1;endFill=0;endSize=12;html=1;rounded=0;exitX=0.633;exitY=-0.133;exitDx=0;exitDy=0;exitPerimeter=0;entryX=0.5;entryY=0;entryDx=0;entryDy=0;" edge="1" parent="1" source="Evy_VJ2f85a_wjDh4gpD-58" target="JG07l5RM8xytLAkRtf2T-20">
          <mxGeometry width="160" relative="1" as="geometry">
            <mxPoint x="692" y="460" as="sourcePoint" />
            <mxPoint x="1330" y="265" as="targetPoint" />
            <Array as="points">
              <mxPoint x="830" y="240" />
              <mxPoint x="1160" y="240" />
            </Array>
          </mxGeometry>
        </mxCell>
        <mxCell id="JG07l5RM8xytLAkRtf2T-26" value="&quot;B4&quot;" style="text;html=1;strokeColor=none;fillColor=none;align=center;verticalAlign=middle;whiteSpace=wrap;rounded=0;" vertex="1" parent="1">
          <mxGeometry x="980" y="240" width="60" height="30" as="geometry" />
        </mxCell>
        <mxCell id="JG07l5RM8xytLAkRtf2T-27" value="" style="endArrow=classic;html=1;rounded=0;exitX=0.667;exitY=0.167;exitDx=0;exitDy=0;exitPerimeter=0;" edge="1" parent="1">
          <mxGeometry width="50" height="50" relative="1" as="geometry">
            <mxPoint x="1310" y="390" as="sourcePoint" />
            <mxPoint x="1510" y="390" as="targetPoint" />
            <Array as="points">
              <mxPoint x="1420" y="390" />
            </Array>
          </mxGeometry>
        </mxCell>
        <mxCell id="JG07l5RM8xytLAkRtf2T-28" value="B3" style="text;html=1;strokeColor=none;fillColor=none;align=center;verticalAlign=middle;whiteSpace=wrap;rounded=0;" vertex="1" parent="1">
          <mxGeometry x="1370" y="390" width="60" height="30" as="geometry" />
        </mxCell>
        <mxCell id="JG07l5RM8xytLAkRtf2T-29" value="" style="endArrow=block;dashed=1;endFill=0;endSize=12;html=1;rounded=0;exitX=0.5;exitY=1;exitDx=0;exitDy=0;entryX=0.5;entryY=0;entryDx=0;entryDy=0;" edge="1" parent="1">
          <mxGeometry width="160" relative="1" as="geometry">
            <mxPoint x="719.4100000000001" y="430" as="sourcePoint" />
            <mxPoint x="719.4100000000001" y="550" as="targetPoint" />
          </mxGeometry>
        </mxCell>
        <mxCell id="JG07l5RM8xytLAkRtf2T-30" value="&quot;A8&quot;" style="text;html=1;strokeColor=none;fillColor=none;align=center;verticalAlign=middle;whiteSpace=wrap;rounded=0;" vertex="1" parent="1">
          <mxGeometry x="660" y="470" width="60" height="30" as="geometry" />
        </mxCell>
        <mxCell id="JG07l5RM8xytLAkRtf2T-31" value="" style="endArrow=classic;html=1;rounded=0;exitX=1;exitY=0.5;exitDx=0;exitDy=0;entryX=0.167;entryY=0.5;entryDx=0;entryDy=0;entryPerimeter=0;" edge="1" parent="1">
          <mxGeometry width="50" height="50" relative="1" as="geometry">
            <mxPoint x="760" y="589.71" as="sourcePoint" />
            <mxPoint x="980" y="589.71" as="targetPoint" />
            <Array as="points">
              <mxPoint x="870" y="589.71" />
            </Array>
          </mxGeometry>
        </mxCell>
        <mxCell id="JG07l5RM8xytLAkRtf2T-32" value="A12" style="text;html=1;strokeColor=none;fillColor=none;align=center;verticalAlign=middle;whiteSpace=wrap;rounded=0;" vertex="1" parent="1">
          <mxGeometry x="840" y="585" width="60" height="30" as="geometry" />
        </mxCell>
        <mxCell id="JG07l5RM8xytLAkRtf2T-37" value="" style="group" connectable="0" vertex="1" parent="1">
          <mxGeometry x="970" y="550" width="100" height="80" as="geometry" />
        </mxCell>
        <mxCell id="JG07l5RM8xytLAkRtf2T-38" value="0" style="text;html=1;align=center;verticalAlign=middle;whiteSpace=wrap;rounded=0;" vertex="1" parent="JG07l5RM8xytLAkRtf2T-37">
          <mxGeometry x="40" y="25" width="60" height="30" as="geometry" />
        </mxCell>
        <mxCell id="JG07l5RM8xytLAkRtf2T-39" value="" style="group" connectable="0" vertex="1" parent="JG07l5RM8xytLAkRtf2T-37">
          <mxGeometry width="100" height="80" as="geometry" />
        </mxCell>
        <mxCell id="JG07l5RM8xytLAkRtf2T-40" value="" style="shape=sumEllipse;perimeter=ellipsePerimeter;whiteSpace=wrap;html=1;backgroundOutline=1;fillColor=#fff2cc;strokeColor=#d6b656;" vertex="1" parent="JG07l5RM8xytLAkRtf2T-39">
          <mxGeometry x="10" width="80" height="80" as="geometry" />
        </mxCell>
        <mxCell id="JG07l5RM8xytLAkRtf2T-41" value="4" style="text;html=1;align=center;verticalAlign=middle;whiteSpace=wrap;rounded=0;" vertex="1" parent="JG07l5RM8xytLAkRtf2T-39">
          <mxGeometry x="40" y="50" width="20" height="20" as="geometry" />
        </mxCell>
        <mxCell id="JG07l5RM8xytLAkRtf2T-42" value="4" style="text;html=1;align=center;verticalAlign=middle;whiteSpace=wrap;rounded=0;" vertex="1" parent="JG07l5RM8xytLAkRtf2T-39">
          <mxGeometry x="20" y="30" width="20" height="20" as="geometry" />
        </mxCell>
        <mxCell id="JG07l5RM8xytLAkRtf2T-43" value="16" style="text;html=1;align=center;verticalAlign=middle;whiteSpace=wrap;rounded=0;" vertex="1" parent="JG07l5RM8xytLAkRtf2T-39">
          <mxGeometry x="60" y="30" width="20" height="20" as="geometry" />
        </mxCell>
        <mxCell id="JG07l5RM8xytLAkRtf2T-44" value="12" style="text;html=1;align=center;verticalAlign=middle;whiteSpace=wrap;rounded=0;" vertex="1" parent="JG07l5RM8xytLAkRtf2T-39">
          <mxGeometry x="40" y="10" width="20" height="20" as="geometry" />
        </mxCell>
        <mxCell id="JG07l5RM8xytLAkRtf2T-46" value="A13" style="text;html=1;strokeColor=none;fillColor=none;align=center;verticalAlign=middle;whiteSpace=wrap;rounded=0;" vertex="1" parent="1">
          <mxGeometry x="1620" y="552.5" width="60" height="30" as="geometry" />
        </mxCell>
        <mxCell id="JG07l5RM8xytLAkRtf2T-48" value="A7" style="text;html=1;strokeColor=none;fillColor=none;align=center;verticalAlign=middle;whiteSpace=wrap;rounded=0;" vertex="1" parent="1">
          <mxGeometry x="660" y="880" width="60" height="30" as="geometry" />
        </mxCell>
        <mxCell id="JG07l5RM8xytLAkRtf2T-49" value="" style="group" connectable="0" vertex="1" parent="1">
          <mxGeometry x="780" y="830" width="200" height="90" as="geometry" />
        </mxCell>
        <mxCell id="JG07l5RM8xytLAkRtf2T-52" value="" style="shape=sumEllipse;perimeter=ellipsePerimeter;whiteSpace=wrap;html=1;backgroundOutline=1;fillColor=#fff2cc;strokeColor=#d6b656;" vertex="1" parent="JG07l5RM8xytLAkRtf2T-49">
          <mxGeometry x="120" y="10" width="80" height="80" as="geometry" />
        </mxCell>
        <mxCell id="JG07l5RM8xytLAkRtf2T-50" value="7" style="text;html=1;align=center;verticalAlign=middle;whiteSpace=wrap;rounded=0;" vertex="1" parent="JG07l5RM8xytLAkRtf2T-49">
          <mxGeometry x="148.5" y="35" width="60" height="30" as="geometry" />
        </mxCell>
        <mxCell id="JG07l5RM8xytLAkRtf2T-51" value="" style="group" connectable="0" vertex="1" parent="JG07l5RM8xytLAkRtf2T-49">
          <mxGeometry width="100" height="80" as="geometry" />
        </mxCell>
        <mxCell id="JG07l5RM8xytLAkRtf2T-53" value="4" style="text;html=1;align=center;verticalAlign=middle;whiteSpace=wrap;rounded=0;" vertex="1" parent="JG07l5RM8xytLAkRtf2T-51">
          <mxGeometry x="148.5" y="60" width="20" height="20" as="geometry" />
        </mxCell>
        <mxCell id="JG07l5RM8xytLAkRtf2T-54" value="7" style="text;html=1;align=center;verticalAlign=middle;whiteSpace=wrap;rounded=0;" vertex="1" parent="JG07l5RM8xytLAkRtf2T-51">
          <mxGeometry x="128.5" y="40" width="20" height="20" as="geometry" />
        </mxCell>
        <mxCell id="JG07l5RM8xytLAkRtf2T-56" value="0" style="text;html=1;align=center;verticalAlign=middle;whiteSpace=wrap;rounded=0;" vertex="1" parent="JG07l5RM8xytLAkRtf2T-51">
          <mxGeometry x="148.5" y="20" width="20" height="20" as="geometry" />
        </mxCell>
        <mxCell id="JG07l5RM8xytLAkRtf2T-60" value="C2" style="text;html=1;strokeColor=none;fillColor=none;align=center;verticalAlign=middle;whiteSpace=wrap;rounded=0;" vertex="1" parent="1">
          <mxGeometry x="1300" y="650" width="60" height="30" as="geometry" />
        </mxCell>
        <mxCell id="JG07l5RM8xytLAkRtf2T-61" value="D1" style="text;html=1;strokeColor=none;fillColor=none;align=center;verticalAlign=middle;whiteSpace=wrap;rounded=0;" vertex="1" parent="1">
          <mxGeometry x="1050" y="850" width="60" height="30" as="geometry" />
        </mxCell>
        <mxCell id="JG07l5RM8xytLAkRtf2T-63" value="F2" style="text;html=1;strokeColor=none;fillColor=none;align=center;verticalAlign=middle;whiteSpace=wrap;rounded=0;" vertex="1" parent="1">
          <mxGeometry x="1000" y="1030" width="60" height="30" as="geometry" />
        </mxCell>
        <mxCell id="JG07l5RM8xytLAkRtf2T-65" value="E2" style="text;html=1;strokeColor=none;fillColor=none;align=center;verticalAlign=middle;whiteSpace=wrap;rounded=0;" vertex="1" parent="1">
          <mxGeometry x="510" y="1150" width="60" height="30" as="geometry" />
        </mxCell>
        <mxCell id="JG07l5RM8xytLAkRtf2T-66" value="" style="group" connectable="0" vertex="1" parent="1">
          <mxGeometry x="600" y="1110" width="100" height="80" as="geometry" />
        </mxCell>
        <mxCell id="JG07l5RM8xytLAkRtf2T-67" value="0" style="text;html=1;align=center;verticalAlign=middle;whiteSpace=wrap;rounded=0;" vertex="1" parent="JG07l5RM8xytLAkRtf2T-66">
          <mxGeometry x="40" y="25" width="60" height="30" as="geometry" />
        </mxCell>
        <mxCell id="JG07l5RM8xytLAkRtf2T-68" value="" style="group" connectable="0" vertex="1" parent="JG07l5RM8xytLAkRtf2T-66">
          <mxGeometry width="100" height="80" as="geometry" />
        </mxCell>
        <mxCell id="JG07l5RM8xytLAkRtf2T-69" value="" style="shape=sumEllipse;perimeter=ellipsePerimeter;whiteSpace=wrap;html=1;backgroundOutline=1;fillColor=#fff2cc;strokeColor=#d6b656;" vertex="1" parent="JG07l5RM8xytLAkRtf2T-68">
          <mxGeometry x="10" width="80" height="80" as="geometry" />
        </mxCell>
        <mxCell id="JG07l5RM8xytLAkRtf2T-70" value="3" style="text;html=1;align=center;verticalAlign=middle;whiteSpace=wrap;rounded=0;" vertex="1" parent="JG07l5RM8xytLAkRtf2T-68">
          <mxGeometry x="40" y="50" width="20" height="20" as="geometry" />
        </mxCell>
        <mxCell id="JG07l5RM8xytLAkRtf2T-71" value="9" style="text;html=1;align=center;verticalAlign=middle;whiteSpace=wrap;rounded=0;" vertex="1" parent="JG07l5RM8xytLAkRtf2T-68">
          <mxGeometry x="20" y="30" width="20" height="20" as="geometry" />
        </mxCell>
        <mxCell id="JG07l5RM8xytLAkRtf2T-72" value="12" style="text;html=1;align=center;verticalAlign=middle;whiteSpace=wrap;rounded=0;" vertex="1" parent="JG07l5RM8xytLAkRtf2T-68">
          <mxGeometry x="60" y="30" width="20" height="20" as="geometry" />
        </mxCell>
        <mxCell id="JG07l5RM8xytLAkRtf2T-73" value="3" style="text;html=1;align=center;verticalAlign=middle;whiteSpace=wrap;rounded=0;" vertex="1" parent="JG07l5RM8xytLAkRtf2T-68">
          <mxGeometry x="40" y="10" width="20" height="20" as="geometry" />
        </mxCell>
        <mxCell id="JG07l5RM8xytLAkRtf2T-75" value="E4" style="text;html=1;strokeColor=none;fillColor=none;align=center;verticalAlign=middle;whiteSpace=wrap;rounded=0;" vertex="1" parent="1">
          <mxGeometry x="757" y="1150" width="60" height="30" as="geometry" />
        </mxCell>
        <mxCell id="JG07l5RM8xytLAkRtf2T-76" value="" style="group" connectable="0" vertex="1" parent="1">
          <mxGeometry x="850" y="1120" width="100" height="80" as="geometry" />
        </mxCell>
        <mxCell id="JG07l5RM8xytLAkRtf2T-77" value="0" style="text;html=1;align=center;verticalAlign=middle;whiteSpace=wrap;rounded=0;" vertex="1" parent="JG07l5RM8xytLAkRtf2T-76">
          <mxGeometry x="40" y="25" width="60" height="30" as="geometry" />
        </mxCell>
        <mxCell id="JG07l5RM8xytLAkRtf2T-78" value="" style="group" connectable="0" vertex="1" parent="JG07l5RM8xytLAkRtf2T-76">
          <mxGeometry width="100" height="80" as="geometry" />
        </mxCell>
        <mxCell id="JG07l5RM8xytLAkRtf2T-79" value="" style="shape=sumEllipse;perimeter=ellipsePerimeter;whiteSpace=wrap;html=1;backgroundOutline=1;fillColor=#fff2cc;strokeColor=#d6b656;" vertex="1" parent="JG07l5RM8xytLAkRtf2T-78">
          <mxGeometry x="10" width="80" height="80" as="geometry" />
        </mxCell>
        <mxCell id="JG07l5RM8xytLAkRtf2T-80" value="5" style="text;html=1;align=center;verticalAlign=middle;whiteSpace=wrap;rounded=0;" vertex="1" parent="JG07l5RM8xytLAkRtf2T-78">
          <mxGeometry x="40" y="50" width="20" height="20" as="geometry" />
        </mxCell>
        <mxCell id="JG07l5RM8xytLAkRtf2T-81" value="12" style="text;html=1;align=center;verticalAlign=middle;whiteSpace=wrap;rounded=0;" vertex="1" parent="JG07l5RM8xytLAkRtf2T-78">
          <mxGeometry x="20" y="30" width="20" height="20" as="geometry" />
        </mxCell>
        <mxCell id="JG07l5RM8xytLAkRtf2T-82" value="15" style="text;html=1;align=center;verticalAlign=middle;whiteSpace=wrap;rounded=0;" vertex="1" parent="JG07l5RM8xytLAkRtf2T-78">
          <mxGeometry x="60" y="30" width="20" height="20" as="geometry" />
        </mxCell>
        <mxCell id="JG07l5RM8xytLAkRtf2T-83" value="3" style="text;html=1;align=center;verticalAlign=middle;whiteSpace=wrap;rounded=0;" vertex="1" parent="JG07l5RM8xytLAkRtf2T-78">
          <mxGeometry x="40" y="10" width="20" height="20" as="geometry" />
        </mxCell>
        <mxCell id="JG07l5RM8xytLAkRtf2T-85" value="" style="endArrow=classic;html=1;rounded=0;exitX=0.75;exitY=1;exitDx=0;exitDy=0;entryX=0.5;entryY=0;entryDx=0;entryDy=0;" edge="1" parent="1" source="Evy_VJ2f85a_wjDh4gpD-72" target="JG07l5RM8xytLAkRtf2T-90">
          <mxGeometry width="50" height="50" relative="1" as="geometry">
            <mxPoint x="730" y="700" as="sourcePoint" />
            <mxPoint x="720" y="730" as="targetPoint" />
            <Array as="points" />
          </mxGeometry>
        </mxCell>
        <mxCell id="JG07l5RM8xytLAkRtf2T-86" value="E3" style="text;html=1;strokeColor=none;fillColor=none;align=center;verticalAlign=middle;whiteSpace=wrap;rounded=0;" vertex="1" parent="1">
          <mxGeometry x="730" y="650" width="60" height="30" as="geometry" />
        </mxCell>
        <mxCell id="JG07l5RM8xytLAkRtf2T-87" value="" style="group" connectable="0" vertex="1" parent="1">
          <mxGeometry x="690" y="720" width="100" height="80" as="geometry" />
        </mxCell>
        <mxCell id="JG07l5RM8xytLAkRtf2T-88" value="0" style="text;html=1;align=center;verticalAlign=middle;whiteSpace=wrap;rounded=0;" vertex="1" parent="JG07l5RM8xytLAkRtf2T-87">
          <mxGeometry x="40" y="25" width="60" height="30" as="geometry" />
        </mxCell>
        <mxCell id="JG07l5RM8xytLAkRtf2T-89" value="" style="group" connectable="0" vertex="1" parent="JG07l5RM8xytLAkRtf2T-87">
          <mxGeometry width="100" height="80" as="geometry" />
        </mxCell>
        <mxCell id="JG07l5RM8xytLAkRtf2T-90" value="" style="shape=sumEllipse;perimeter=ellipsePerimeter;whiteSpace=wrap;html=1;backgroundOutline=1;fillColor=#fff2cc;strokeColor=#d6b656;" vertex="1" parent="JG07l5RM8xytLAkRtf2T-89">
          <mxGeometry x="10" width="80" height="80" as="geometry" />
        </mxCell>
        <mxCell id="JG07l5RM8xytLAkRtf2T-91" value="4" style="text;html=1;align=center;verticalAlign=middle;whiteSpace=wrap;rounded=0;" vertex="1" parent="JG07l5RM8xytLAkRtf2T-89">
          <mxGeometry x="40" y="50" width="20" height="20" as="geometry" />
        </mxCell>
        <mxCell id="JG07l5RM8xytLAkRtf2T-92" value="4" style="text;html=1;align=center;verticalAlign=middle;whiteSpace=wrap;rounded=0;" vertex="1" parent="JG07l5RM8xytLAkRtf2T-89">
          <mxGeometry x="20" y="30" width="20" height="20" as="geometry" />
        </mxCell>
        <mxCell id="JG07l5RM8xytLAkRtf2T-93" value="13" style="text;html=1;align=center;verticalAlign=middle;whiteSpace=wrap;rounded=0;" vertex="1" parent="JG07l5RM8xytLAkRtf2T-89">
          <mxGeometry x="60" y="30" width="20" height="20" as="geometry" />
        </mxCell>
        <mxCell id="JG07l5RM8xytLAkRtf2T-94" value="9" style="text;html=1;align=center;verticalAlign=middle;whiteSpace=wrap;rounded=0;" vertex="1" parent="JG07l5RM8xytLAkRtf2T-89">
          <mxGeometry x="40" y="10" width="20" height="20" as="geometry" />
        </mxCell>
        <mxCell id="JG07l5RM8xytLAkRtf2T-95" value="" style="endArrow=classic;html=1;rounded=0;exitX=0.5;exitY=1;exitDx=0;exitDy=0;entryX=0.363;entryY=0.038;entryDx=0;entryDy=0;entryPerimeter=0;" edge="1" parent="1" source="JG07l5RM8xytLAkRtf2T-90" target="JG07l5RM8xytLAkRtf2T-79">
          <mxGeometry width="50" height="50" relative="1" as="geometry">
            <mxPoint x="750" y="980.38" as="sourcePoint" />
            <mxPoint x="910" y="980" as="targetPoint" />
            <Array as="points">
              <mxPoint x="865" y="980.38" />
            </Array>
          </mxGeometry>
        </mxCell>
        <mxCell id="JG07l5RM8xytLAkRtf2T-103" value="E5" style="text;html=1;strokeColor=none;fillColor=none;align=center;verticalAlign=middle;whiteSpace=wrap;rounded=0;" vertex="1" parent="1">
          <mxGeometry x="760" y="1030" width="60" height="30" as="geometry" />
        </mxCell>
        <mxCell id="JG07l5RM8xytLAkRtf2T-105" value="" style="endArrow=classic;html=1;rounded=0;exitX=1;exitY=0.5;exitDx=0;exitDy=0;entryX=1;entryY=1;entryDx=0;entryDy=0;" edge="1" parent="1" target="W6_hlZnn-KgXA1NEJbQf-144">
          <mxGeometry width="50" height="50" relative="1" as="geometry">
            <mxPoint x="940" y="1159.8700000000001" as="sourcePoint" />
            <mxPoint x="2630" y="1300" as="targetPoint" />
            <Array as="points">
              <mxPoint x="1050" y="1300" />
              <mxPoint x="2590" y="1300" />
            </Array>
          </mxGeometry>
        </mxCell>
        <mxCell id="JG07l5RM8xytLAkRtf2T-106" value="E6 / 2" style="text;html=1;strokeColor=none;fillColor=none;align=center;verticalAlign=middle;whiteSpace=wrap;rounded=0;" vertex="1" parent="1">
          <mxGeometry x="1550" y="1250" width="60" height="30" as="geometry" />
        </mxCell>
        <mxCell id="JG07l5RM8xytLAkRtf2T-108" value="" style="endArrow=block;dashed=1;endFill=0;endSize=12;html=1;rounded=0;exitX=1;exitY=0.5;exitDx=0;exitDy=0;entryX=0.5;entryY=0;entryDx=0;entryDy=0;" edge="1" parent="1" source="Evy_VJ2f85a_wjDh4gpD-72" target="JG07l5RM8xytLAkRtf2T-52">
          <mxGeometry width="160" relative="1" as="geometry">
            <mxPoint x="869.5000000000001" y="650" as="sourcePoint" />
            <mxPoint x="869.5000000000001" y="770" as="targetPoint" />
            <Array as="points">
              <mxPoint x="910" y="690" />
            </Array>
          </mxGeometry>
        </mxCell>
        <mxCell id="JG07l5RM8xytLAkRtf2T-109" value="&quot;A9&quot;" style="text;html=1;strokeColor=none;fillColor=none;align=center;verticalAlign=middle;whiteSpace=wrap;rounded=0;" vertex="1" parent="1">
          <mxGeometry x="850" y="710" width="60" height="30" as="geometry" />
        </mxCell>
        <mxCell id="JG07l5RM8xytLAkRtf2T-111" value="" style="group" connectable="0" vertex="1" parent="1">
          <mxGeometry x="1090" y="1030" width="100" height="80" as="geometry" />
        </mxCell>
        <mxCell id="JG07l5RM8xytLAkRtf2T-112" value="0" style="text;html=1;align=center;verticalAlign=middle;whiteSpace=wrap;rounded=0;" vertex="1" parent="JG07l5RM8xytLAkRtf2T-111">
          <mxGeometry x="40" y="25" width="60" height="30" as="geometry" />
        </mxCell>
        <mxCell id="JG07l5RM8xytLAkRtf2T-113" value="" style="group" connectable="0" vertex="1" parent="JG07l5RM8xytLAkRtf2T-111">
          <mxGeometry width="100" height="80" as="geometry" />
        </mxCell>
        <mxCell id="JG07l5RM8xytLAkRtf2T-114" value="" style="shape=sumEllipse;perimeter=ellipsePerimeter;whiteSpace=wrap;html=1;backgroundOutline=1;fillColor=#fff2cc;strokeColor=#d6b656;" vertex="1" parent="JG07l5RM8xytLAkRtf2T-113">
          <mxGeometry x="10" width="80" height="80" as="geometry" />
        </mxCell>
        <mxCell id="JG07l5RM8xytLAkRtf2T-115" value="5" style="text;html=1;align=center;verticalAlign=middle;whiteSpace=wrap;rounded=0;" vertex="1" parent="JG07l5RM8xytLAkRtf2T-113">
          <mxGeometry x="40" y="50" width="20" height="20" as="geometry" />
        </mxCell>
        <mxCell id="JG07l5RM8xytLAkRtf2T-116" value="9" style="text;html=1;align=center;verticalAlign=middle;whiteSpace=wrap;rounded=0;" vertex="1" parent="JG07l5RM8xytLAkRtf2T-113">
          <mxGeometry x="20" y="30" width="20" height="20" as="geometry" />
        </mxCell>
        <mxCell id="JG07l5RM8xytLAkRtf2T-117" value="9" style="text;html=1;align=center;verticalAlign=middle;whiteSpace=wrap;rounded=0;" vertex="1" parent="JG07l5RM8xytLAkRtf2T-113">
          <mxGeometry x="60" y="30" width="20" height="20" as="geometry" />
        </mxCell>
        <mxCell id="JG07l5RM8xytLAkRtf2T-118" value="0" style="text;html=1;align=center;verticalAlign=middle;whiteSpace=wrap;rounded=0;" vertex="1" parent="JG07l5RM8xytLAkRtf2T-113">
          <mxGeometry x="40" y="10" width="20" height="20" as="geometry" />
        </mxCell>
        <mxCell id="JG07l5RM8xytLAkRtf2T-119" value="" style="endArrow=classic;html=1;rounded=0;exitX=1;exitY=0.5;exitDx=0;exitDy=0;" edge="1" parent="1">
          <mxGeometry width="50" height="50" relative="1" as="geometry">
            <mxPoint x="1180" y="1069.66" as="sourcePoint" />
            <mxPoint x="1320" y="1069" as="targetPoint" />
            <Array as="points">
              <mxPoint x="1290" y="1069.66" />
            </Array>
          </mxGeometry>
        </mxCell>
        <mxCell id="JG07l5RM8xytLAkRtf2T-120" value="F3" style="text;html=1;strokeColor=none;fillColor=none;align=center;verticalAlign=middle;whiteSpace=wrap;rounded=0;" vertex="1" parent="1">
          <mxGeometry x="1210" y="1030" width="60" height="30" as="geometry" />
        </mxCell>
        <mxCell id="JG07l5RM8xytLAkRtf2T-121" value="" style="group" connectable="0" vertex="1" parent="1">
          <mxGeometry x="1310" y="1020" width="100" height="80" as="geometry" />
        </mxCell>
        <mxCell id="JG07l5RM8xytLAkRtf2T-122" value="0" style="text;html=1;align=center;verticalAlign=middle;whiteSpace=wrap;rounded=0;" vertex="1" parent="JG07l5RM8xytLAkRtf2T-121">
          <mxGeometry x="40" y="25" width="60" height="30" as="geometry" />
        </mxCell>
        <mxCell id="JG07l5RM8xytLAkRtf2T-123" value="" style="group" connectable="0" vertex="1" parent="JG07l5RM8xytLAkRtf2T-121">
          <mxGeometry width="100" height="80" as="geometry" />
        </mxCell>
        <mxCell id="JG07l5RM8xytLAkRtf2T-124" value="" style="shape=sumEllipse;perimeter=ellipsePerimeter;whiteSpace=wrap;html=1;backgroundOutline=1;fillColor=#fff2cc;strokeColor=#d6b656;" vertex="1" parent="JG07l5RM8xytLAkRtf2T-123">
          <mxGeometry x="10" width="80" height="80" as="geometry" />
        </mxCell>
        <mxCell id="JG07l5RM8xytLAkRtf2T-125" value="6" style="text;html=1;align=center;verticalAlign=middle;whiteSpace=wrap;rounded=0;" vertex="1" parent="JG07l5RM8xytLAkRtf2T-123">
          <mxGeometry x="40" y="50" width="20" height="20" as="geometry" />
        </mxCell>
        <mxCell id="JG07l5RM8xytLAkRtf2T-126" value="11" style="text;html=1;align=center;verticalAlign=middle;whiteSpace=wrap;rounded=0;" vertex="1" parent="JG07l5RM8xytLAkRtf2T-123">
          <mxGeometry x="20" y="30" width="20" height="20" as="geometry" />
        </mxCell>
        <mxCell id="JG07l5RM8xytLAkRtf2T-127" value="11" style="text;html=1;align=center;verticalAlign=middle;whiteSpace=wrap;rounded=0;" vertex="1" parent="JG07l5RM8xytLAkRtf2T-123">
          <mxGeometry x="60" y="30" width="20" height="20" as="geometry" />
        </mxCell>
        <mxCell id="JG07l5RM8xytLAkRtf2T-128" value="0" style="text;html=1;align=center;verticalAlign=middle;whiteSpace=wrap;rounded=0;" vertex="1" parent="JG07l5RM8xytLAkRtf2T-123">
          <mxGeometry x="40" y="10" width="20" height="20" as="geometry" />
        </mxCell>
        <mxCell id="JG07l5RM8xytLAkRtf2T-129" value="" style="endArrow=classic;html=1;rounded=0;exitX=1;exitY=0.5;exitDx=0;exitDy=0;" edge="1" parent="1">
          <mxGeometry width="50" height="50" relative="1" as="geometry">
            <mxPoint x="1400" y="1070.0700000000002" as="sourcePoint" />
            <mxPoint x="1540" y="1069.4099999999999" as="targetPoint" />
            <Array as="points">
              <mxPoint x="1510" y="1070.0700000000002" />
            </Array>
          </mxGeometry>
        </mxCell>
        <mxCell id="JG07l5RM8xytLAkRtf2T-130" value="F4" style="text;html=1;strokeColor=none;fillColor=none;align=center;verticalAlign=middle;whiteSpace=wrap;rounded=0;" vertex="1" parent="1">
          <mxGeometry x="1430" y="1030" width="60" height="30" as="geometry" />
        </mxCell>
        <mxCell id="JG07l5RM8xytLAkRtf2T-140" value="" style="group" connectable="0" vertex="1" parent="1">
          <mxGeometry x="1530" y="1030" width="100" height="80" as="geometry" />
        </mxCell>
        <mxCell id="JG07l5RM8xytLAkRtf2T-141" value="0" style="text;html=1;align=center;verticalAlign=middle;whiteSpace=wrap;rounded=0;" vertex="1" parent="JG07l5RM8xytLAkRtf2T-140">
          <mxGeometry x="40" y="25" width="60" height="30" as="geometry" />
        </mxCell>
        <mxCell id="JG07l5RM8xytLAkRtf2T-142" value="" style="group" connectable="0" vertex="1" parent="JG07l5RM8xytLAkRtf2T-140">
          <mxGeometry width="100" height="80" as="geometry" />
        </mxCell>
        <mxCell id="JG07l5RM8xytLAkRtf2T-143" value="" style="shape=sumEllipse;perimeter=ellipsePerimeter;whiteSpace=wrap;html=1;backgroundOutline=1;fillColor=#fff2cc;strokeColor=#d6b656;" vertex="1" parent="JG07l5RM8xytLAkRtf2T-142">
          <mxGeometry x="10" width="80" height="80" as="geometry" />
        </mxCell>
        <mxCell id="JG07l5RM8xytLAkRtf2T-144" value="7" style="text;html=1;align=center;verticalAlign=middle;whiteSpace=wrap;rounded=0;" vertex="1" parent="JG07l5RM8xytLAkRtf2T-142">
          <mxGeometry x="40" y="50" width="20" height="20" as="geometry" />
        </mxCell>
        <mxCell id="JG07l5RM8xytLAkRtf2T-145" value="12" style="text;html=1;align=center;verticalAlign=middle;whiteSpace=wrap;rounded=0;" vertex="1" parent="JG07l5RM8xytLAkRtf2T-142">
          <mxGeometry x="20" y="30" width="20" height="20" as="geometry" />
        </mxCell>
        <mxCell id="JG07l5RM8xytLAkRtf2T-146" value="12" style="text;html=1;align=center;verticalAlign=middle;whiteSpace=wrap;rounded=0;" vertex="1" parent="JG07l5RM8xytLAkRtf2T-142">
          <mxGeometry x="60" y="30" width="20" height="20" as="geometry" />
        </mxCell>
        <mxCell id="JG07l5RM8xytLAkRtf2T-147" value="0" style="text;html=1;align=center;verticalAlign=middle;whiteSpace=wrap;rounded=0;" vertex="1" parent="JG07l5RM8xytLAkRtf2T-142">
          <mxGeometry x="40" y="10" width="20" height="20" as="geometry" />
        </mxCell>
        <mxCell id="JG07l5RM8xytLAkRtf2T-148" value="" style="endArrow=classic;html=1;rounded=0;exitX=0.811;exitY=0.137;exitDx=0;exitDy=0;entryX=0.5;entryY=0;entryDx=0;entryDy=0;exitPerimeter=0;" edge="1" parent="1" source="JG07l5RM8xytLAkRtf2T-143" target="W6_hlZnn-KgXA1NEJbQf-4">
          <mxGeometry width="50" height="50" relative="1" as="geometry">
            <mxPoint x="1620.0042712474617" y="931.715728752539" as="sourcePoint" />
            <mxPoint x="1910" y="864" as="targetPoint" />
            <Array as="points">
              <mxPoint x="1810" y="1000" />
            </Array>
          </mxGeometry>
        </mxCell>
        <mxCell id="JG07l5RM8xytLAkRtf2T-151" value="" style="endArrow=classic;html=1;rounded=0;entryX=0;entryY=1;entryDx=0;entryDy=0;" edge="1" parent="1" source="JG07l5RM8xytLAkRtf2T-143" target="W6_hlZnn-KgXA1NEJbQf-4">
          <mxGeometry width="50" height="50" relative="1" as="geometry">
            <mxPoint x="1600" y="1110" as="sourcePoint" />
            <mxPoint x="1890" y="1140" as="targetPoint" />
            <Array as="points">
              <mxPoint x="1660" y="1140" />
            </Array>
          </mxGeometry>
        </mxCell>
        <mxCell id="JG07l5RM8xytLAkRtf2T-152" value="F5" style="text;html=1;strokeColor=none;fillColor=none;align=center;verticalAlign=middle;whiteSpace=wrap;rounded=0;" vertex="1" parent="1">
          <mxGeometry x="1710" y="970" width="60" height="30" as="geometry" />
        </mxCell>
        <mxCell id="JG07l5RM8xytLAkRtf2T-153" value="F6" style="text;html=1;strokeColor=none;fillColor=none;align=center;verticalAlign=middle;whiteSpace=wrap;rounded=0;" vertex="1" parent="1">
          <mxGeometry x="1690" y="1020" width="60" height="30" as="geometry" />
        </mxCell>
        <mxCell id="JG07l5RM8xytLAkRtf2T-154" value="F7" style="text;html=1;strokeColor=none;fillColor=none;align=center;verticalAlign=middle;whiteSpace=wrap;rounded=0;" vertex="1" parent="1">
          <mxGeometry x="1710" y="1060" width="60" height="30" as="geometry" />
        </mxCell>
        <mxCell id="JG07l5RM8xytLAkRtf2T-155" value="F8" style="text;html=1;strokeColor=none;fillColor=none;align=center;verticalAlign=middle;whiteSpace=wrap;rounded=0;" vertex="1" parent="1">
          <mxGeometry x="1680" y="1100" width="60" height="30" as="geometry" />
        </mxCell>
        <mxCell id="JG07l5RM8xytLAkRtf2T-158" value="" style="endArrow=classic;html=1;rounded=0;exitX=0.5;exitY=1;exitDx=0;exitDy=0;entryX=0.406;entryY=0.978;entryDx=0;entryDy=0;entryPerimeter=0;" edge="1" parent="1" source="JG07l5RM8xytLAkRtf2T-143" target="W6_hlZnn-KgXA1NEJbQf-4">
          <mxGeometry width="50" height="50" relative="1" as="geometry">
            <mxPoint x="1550" y="1170" as="sourcePoint" />
            <mxPoint x="1880" y="1200" as="targetPoint" />
            <Array as="points">
              <mxPoint x="1620" y="1200" />
            </Array>
          </mxGeometry>
        </mxCell>
        <mxCell id="JG07l5RM8xytLAkRtf2T-159" value="F9" style="text;html=1;strokeColor=none;fillColor=none;align=center;verticalAlign=middle;whiteSpace=wrap;rounded=0;" vertex="1" parent="1">
          <mxGeometry x="1690" y="1150" width="60" height="30" as="geometry" />
        </mxCell>
        <mxCell id="W6_hlZnn-KgXA1NEJbQf-1" value="" style="group" connectable="0" vertex="1" parent="1">
          <mxGeometry x="1940" y="1040" width="100" height="80" as="geometry" />
        </mxCell>
        <mxCell id="W6_hlZnn-KgXA1NEJbQf-2" value="0" style="text;html=1;align=center;verticalAlign=middle;whiteSpace=wrap;rounded=0;" vertex="1" parent="W6_hlZnn-KgXA1NEJbQf-1">
          <mxGeometry x="40" y="25" width="60" height="30" as="geometry" />
        </mxCell>
        <mxCell id="W6_hlZnn-KgXA1NEJbQf-3" value="" style="group" connectable="0" vertex="1" parent="W6_hlZnn-KgXA1NEJbQf-1">
          <mxGeometry width="100" height="80" as="geometry" />
        </mxCell>
        <mxCell id="W6_hlZnn-KgXA1NEJbQf-4" value="" style="shape=sumEllipse;perimeter=ellipsePerimeter;whiteSpace=wrap;html=1;backgroundOutline=1;fillColor=#fff2cc;strokeColor=#d6b656;" vertex="1" parent="W6_hlZnn-KgXA1NEJbQf-3">
          <mxGeometry x="10" width="80" height="80" as="geometry" />
        </mxCell>
        <mxCell id="W6_hlZnn-KgXA1NEJbQf-5" value="8" style="text;html=1;align=center;verticalAlign=middle;whiteSpace=wrap;rounded=0;" vertex="1" parent="W6_hlZnn-KgXA1NEJbQf-3">
          <mxGeometry x="40" y="50" width="20" height="20" as="geometry" />
        </mxCell>
        <mxCell id="W6_hlZnn-KgXA1NEJbQf-6" value="14" style="text;html=1;align=center;verticalAlign=middle;whiteSpace=wrap;rounded=0;" vertex="1" parent="W6_hlZnn-KgXA1NEJbQf-3">
          <mxGeometry x="20" y="30" width="20" height="20" as="geometry" />
        </mxCell>
        <mxCell id="W6_hlZnn-KgXA1NEJbQf-7" value="14" style="text;html=1;align=center;verticalAlign=middle;whiteSpace=wrap;rounded=0;" vertex="1" parent="W6_hlZnn-KgXA1NEJbQf-3">
          <mxGeometry x="60" y="30" width="20" height="20" as="geometry" />
        </mxCell>
        <mxCell id="W6_hlZnn-KgXA1NEJbQf-8" value="0" style="text;html=1;align=center;verticalAlign=middle;whiteSpace=wrap;rounded=0;" vertex="1" parent="W6_hlZnn-KgXA1NEJbQf-3">
          <mxGeometry x="40" y="10" width="20" height="20" as="geometry" />
        </mxCell>
        <mxCell id="W6_hlZnn-KgXA1NEJbQf-9" value="" style="group" connectable="0" vertex="1" parent="1">
          <mxGeometry x="1130" y="710" width="100" height="80" as="geometry" />
        </mxCell>
        <mxCell id="W6_hlZnn-KgXA1NEJbQf-10" value="0" style="text;html=1;align=center;verticalAlign=middle;whiteSpace=wrap;rounded=0;" vertex="1" parent="W6_hlZnn-KgXA1NEJbQf-9">
          <mxGeometry x="40" y="25" width="60" height="30" as="geometry" />
        </mxCell>
        <mxCell id="W6_hlZnn-KgXA1NEJbQf-11" value="" style="group" connectable="0" vertex="1" parent="W6_hlZnn-KgXA1NEJbQf-9">
          <mxGeometry width="100" height="80" as="geometry" />
        </mxCell>
        <mxCell id="W6_hlZnn-KgXA1NEJbQf-12" value="" style="shape=sumEllipse;perimeter=ellipsePerimeter;whiteSpace=wrap;html=1;backgroundOutline=1;fillColor=#fff2cc;strokeColor=#d6b656;" vertex="1" parent="W6_hlZnn-KgXA1NEJbQf-11">
          <mxGeometry x="10" width="80" height="80" as="geometry" />
        </mxCell>
        <mxCell id="W6_hlZnn-KgXA1NEJbQf-13" value="5" style="text;html=1;align=center;verticalAlign=middle;whiteSpace=wrap;rounded=0;" vertex="1" parent="W6_hlZnn-KgXA1NEJbQf-11">
          <mxGeometry x="40" y="50" width="20" height="20" as="geometry" />
        </mxCell>
        <mxCell id="W6_hlZnn-KgXA1NEJbQf-14" value="8" style="text;html=1;align=center;verticalAlign=middle;whiteSpace=wrap;rounded=0;" vertex="1" parent="W6_hlZnn-KgXA1NEJbQf-11">
          <mxGeometry x="20" y="30" width="20" height="20" as="geometry" />
        </mxCell>
        <mxCell id="W6_hlZnn-KgXA1NEJbQf-15" value="11" style="text;html=1;align=center;verticalAlign=middle;whiteSpace=wrap;rounded=0;" vertex="1" parent="W6_hlZnn-KgXA1NEJbQf-11">
          <mxGeometry x="60" y="30" width="20" height="20" as="geometry" />
        </mxCell>
        <mxCell id="W6_hlZnn-KgXA1NEJbQf-16" value="3" style="text;html=1;align=center;verticalAlign=middle;whiteSpace=wrap;rounded=0;" vertex="1" parent="W6_hlZnn-KgXA1NEJbQf-11">
          <mxGeometry x="40" y="10" width="20" height="20" as="geometry" />
        </mxCell>
        <mxCell id="W6_hlZnn-KgXA1NEJbQf-17" value="" style="endArrow=classic;html=1;rounded=0;exitX=1;exitY=0.5;exitDx=0;exitDy=0;" edge="1" parent="1">
          <mxGeometry width="50" height="50" relative="1" as="geometry">
            <mxPoint x="1220" y="749.98" as="sourcePoint" />
            <mxPoint x="1420" y="690" as="targetPoint" />
            <Array as="points">
              <mxPoint x="1310" y="690" />
            </Array>
          </mxGeometry>
        </mxCell>
        <mxCell id="W6_hlZnn-KgXA1NEJbQf-18" value="C1" style="text;html=1;strokeColor=none;fillColor=none;align=center;verticalAlign=middle;whiteSpace=wrap;rounded=0;" vertex="1" parent="1">
          <mxGeometry x="990" y="820" width="60" height="30" as="geometry" />
        </mxCell>
        <mxCell id="W6_hlZnn-KgXA1NEJbQf-20" value="C6" style="text;html=1;strokeColor=none;fillColor=none;align=center;verticalAlign=middle;whiteSpace=wrap;rounded=0;" vertex="1" parent="1">
          <mxGeometry x="1480" y="735" width="60" height="30" as="geometry" />
        </mxCell>
        <mxCell id="W6_hlZnn-KgXA1NEJbQf-22" value="" style="group" connectable="0" vertex="1" parent="1">
          <mxGeometry x="2184" y="1949" width="100" height="80" as="geometry" />
        </mxCell>
        <mxCell id="W6_hlZnn-KgXA1NEJbQf-23" value="0" style="text;html=1;align=center;verticalAlign=middle;whiteSpace=wrap;rounded=0;" vertex="1" parent="W6_hlZnn-KgXA1NEJbQf-22">
          <mxGeometry x="40" y="25" width="60" height="30" as="geometry" />
        </mxCell>
        <mxCell id="W6_hlZnn-KgXA1NEJbQf-24" value="" style="group" connectable="0" vertex="1" parent="W6_hlZnn-KgXA1NEJbQf-22">
          <mxGeometry width="100" height="80" as="geometry" />
        </mxCell>
        <mxCell id="W6_hlZnn-KgXA1NEJbQf-25" value="" style="shape=sumEllipse;perimeter=ellipsePerimeter;whiteSpace=wrap;html=1;backgroundOutline=1;fillColor=#fff2cc;strokeColor=#d6b656;" vertex="1" parent="W6_hlZnn-KgXA1NEJbQf-24">
          <mxGeometry x="10" width="80" height="80" as="geometry" />
        </mxCell>
        <mxCell id="W6_hlZnn-KgXA1NEJbQf-26" value="0" style="text;html=1;align=center;verticalAlign=middle;whiteSpace=wrap;rounded=0;" vertex="1" parent="W6_hlZnn-KgXA1NEJbQf-24">
          <mxGeometry x="40" y="50" width="20" height="20" as="geometry" />
        </mxCell>
        <mxCell id="W6_hlZnn-KgXA1NEJbQf-27" value="0" style="text;html=1;align=center;verticalAlign=middle;whiteSpace=wrap;rounded=0;" vertex="1" parent="W6_hlZnn-KgXA1NEJbQf-24">
          <mxGeometry x="20" y="30" width="20" height="20" as="geometry" />
        </mxCell>
        <mxCell id="W6_hlZnn-KgXA1NEJbQf-28" value="0" style="text;html=1;align=center;verticalAlign=middle;whiteSpace=wrap;rounded=0;" vertex="1" parent="W6_hlZnn-KgXA1NEJbQf-24">
          <mxGeometry x="60" y="30" width="20" height="20" as="geometry" />
        </mxCell>
        <mxCell id="W6_hlZnn-KgXA1NEJbQf-29" value="0" style="text;html=1;align=center;verticalAlign=middle;whiteSpace=wrap;rounded=0;" vertex="1" parent="W6_hlZnn-KgXA1NEJbQf-24">
          <mxGeometry x="40" y="10" width="20" height="20" as="geometry" />
        </mxCell>
        <mxCell id="W6_hlZnn-KgXA1NEJbQf-30" value="" style="group" connectable="0" vertex="1" parent="1">
          <mxGeometry x="1410" y="650" width="100" height="80" as="geometry" />
        </mxCell>
        <mxCell id="W6_hlZnn-KgXA1NEJbQf-31" value="0" style="text;html=1;align=center;verticalAlign=middle;whiteSpace=wrap;rounded=0;" vertex="1" parent="W6_hlZnn-KgXA1NEJbQf-30">
          <mxGeometry x="40" y="25" width="60" height="30" as="geometry" />
        </mxCell>
        <mxCell id="W6_hlZnn-KgXA1NEJbQf-32" value="" style="group" connectable="0" vertex="1" parent="W6_hlZnn-KgXA1NEJbQf-30">
          <mxGeometry width="100" height="80" as="geometry" />
        </mxCell>
        <mxCell id="W6_hlZnn-KgXA1NEJbQf-33" value="" style="shape=sumEllipse;perimeter=ellipsePerimeter;whiteSpace=wrap;html=1;backgroundOutline=1;fillColor=#fff2cc;strokeColor=#d6b656;" vertex="1" parent="W6_hlZnn-KgXA1NEJbQf-32">
          <mxGeometry x="10" width="80" height="80" as="geometry" />
        </mxCell>
        <mxCell id="W6_hlZnn-KgXA1NEJbQf-34" value="6" style="text;html=1;align=center;verticalAlign=middle;whiteSpace=wrap;rounded=0;" vertex="1" parent="W6_hlZnn-KgXA1NEJbQf-32">
          <mxGeometry x="40" y="50" width="20" height="20" as="geometry" />
        </mxCell>
        <mxCell id="W6_hlZnn-KgXA1NEJbQf-35" value="9" style="text;html=1;align=center;verticalAlign=middle;whiteSpace=wrap;rounded=0;" vertex="1" parent="W6_hlZnn-KgXA1NEJbQf-32">
          <mxGeometry x="20" y="30" width="20" height="20" as="geometry" />
        </mxCell>
        <mxCell id="W6_hlZnn-KgXA1NEJbQf-36" value="12" style="text;html=1;align=center;verticalAlign=middle;whiteSpace=wrap;rounded=0;" vertex="1" parent="W6_hlZnn-KgXA1NEJbQf-32">
          <mxGeometry x="60" y="30" width="20" height="20" as="geometry" />
        </mxCell>
        <mxCell id="W6_hlZnn-KgXA1NEJbQf-37" value="3" style="text;html=1;align=center;verticalAlign=middle;whiteSpace=wrap;rounded=0;" vertex="1" parent="W6_hlZnn-KgXA1NEJbQf-32">
          <mxGeometry x="40" y="10" width="20" height="20" as="geometry" />
        </mxCell>
        <mxCell id="W6_hlZnn-KgXA1NEJbQf-38" value="" style="endArrow=classic;html=1;rounded=0;exitX=1;exitY=0.5;exitDx=0;exitDy=0;" edge="1" parent="1">
          <mxGeometry width="50" height="50" relative="1" as="geometry">
            <mxPoint x="1500" y="689.95" as="sourcePoint" />
            <mxPoint x="1640" y="690" as="targetPoint" />
            <Array as="points">
              <mxPoint x="1610" y="689.95" />
            </Array>
          </mxGeometry>
        </mxCell>
        <mxCell id="W6_hlZnn-KgXA1NEJbQf-39" value="C3" style="text;html=1;strokeColor=none;fillColor=none;align=center;verticalAlign=middle;whiteSpace=wrap;rounded=0;" vertex="1" parent="1">
          <mxGeometry x="1540" y="650" width="60" height="30" as="geometry" />
        </mxCell>
        <mxCell id="W6_hlZnn-KgXA1NEJbQf-40" value="" style="group" connectable="0" vertex="1" parent="1">
          <mxGeometry x="1630" y="650" width="100" height="80" as="geometry" />
        </mxCell>
        <mxCell id="W6_hlZnn-KgXA1NEJbQf-41" value="0" style="text;html=1;align=center;verticalAlign=middle;whiteSpace=wrap;rounded=0;" vertex="1" parent="W6_hlZnn-KgXA1NEJbQf-40">
          <mxGeometry x="40" y="25" width="60" height="30" as="geometry" />
        </mxCell>
        <mxCell id="W6_hlZnn-KgXA1NEJbQf-42" value="" style="group" connectable="0" vertex="1" parent="W6_hlZnn-KgXA1NEJbQf-40">
          <mxGeometry width="100" height="80" as="geometry" />
        </mxCell>
        <mxCell id="W6_hlZnn-KgXA1NEJbQf-43" value="" style="shape=sumEllipse;perimeter=ellipsePerimeter;whiteSpace=wrap;html=1;backgroundOutline=1;fillColor=#fff2cc;strokeColor=#d6b656;" vertex="1" parent="W6_hlZnn-KgXA1NEJbQf-42">
          <mxGeometry x="10" width="80" height="80" as="geometry" />
        </mxCell>
        <mxCell id="W6_hlZnn-KgXA1NEJbQf-44" value="7" style="text;html=1;align=center;verticalAlign=middle;whiteSpace=wrap;rounded=0;" vertex="1" parent="W6_hlZnn-KgXA1NEJbQf-42">
          <mxGeometry x="40" y="50" width="20" height="20" as="geometry" />
        </mxCell>
        <mxCell id="W6_hlZnn-KgXA1NEJbQf-45" value="10" style="text;html=1;align=center;verticalAlign=middle;whiteSpace=wrap;rounded=0;" vertex="1" parent="W6_hlZnn-KgXA1NEJbQf-42">
          <mxGeometry x="20" y="30" width="20" height="20" as="geometry" />
        </mxCell>
        <mxCell id="W6_hlZnn-KgXA1NEJbQf-46" value="13" style="text;html=1;align=center;verticalAlign=middle;whiteSpace=wrap;rounded=0;" vertex="1" parent="W6_hlZnn-KgXA1NEJbQf-42">
          <mxGeometry x="60" y="30" width="20" height="20" as="geometry" />
        </mxCell>
        <mxCell id="W6_hlZnn-KgXA1NEJbQf-47" value="3" style="text;html=1;align=center;verticalAlign=middle;whiteSpace=wrap;rounded=0;" vertex="1" parent="W6_hlZnn-KgXA1NEJbQf-42">
          <mxGeometry x="40" y="10" width="20" height="20" as="geometry" />
        </mxCell>
        <mxCell id="W6_hlZnn-KgXA1NEJbQf-50" value="" style="group" connectable="0" vertex="1" parent="1">
          <mxGeometry x="1960" y="650" width="100" height="80" as="geometry" />
        </mxCell>
        <mxCell id="W6_hlZnn-KgXA1NEJbQf-51" value="0" style="text;html=1;align=center;verticalAlign=middle;whiteSpace=wrap;rounded=0;" vertex="1" parent="W6_hlZnn-KgXA1NEJbQf-50">
          <mxGeometry x="40" y="25" width="60" height="30" as="geometry" />
        </mxCell>
        <mxCell id="W6_hlZnn-KgXA1NEJbQf-52" value="" style="group" connectable="0" vertex="1" parent="W6_hlZnn-KgXA1NEJbQf-50">
          <mxGeometry width="100" height="80" as="geometry" />
        </mxCell>
        <mxCell id="W6_hlZnn-KgXA1NEJbQf-53" value="" style="shape=sumEllipse;perimeter=ellipsePerimeter;whiteSpace=wrap;html=1;backgroundOutline=1;fillColor=#fff2cc;strokeColor=#d6b656;" vertex="1" parent="W6_hlZnn-KgXA1NEJbQf-52">
          <mxGeometry x="10" width="80" height="80" as="geometry" />
        </mxCell>
        <mxCell id="W6_hlZnn-KgXA1NEJbQf-54" value="8" style="text;html=1;align=center;verticalAlign=middle;whiteSpace=wrap;rounded=0;" vertex="1" parent="W6_hlZnn-KgXA1NEJbQf-52">
          <mxGeometry x="40" y="50" width="20" height="20" as="geometry" />
        </mxCell>
        <mxCell id="W6_hlZnn-KgXA1NEJbQf-55" value="12" style="text;html=1;align=center;verticalAlign=middle;whiteSpace=wrap;rounded=0;" vertex="1" parent="W6_hlZnn-KgXA1NEJbQf-52">
          <mxGeometry x="20" y="30" width="20" height="20" as="geometry" />
        </mxCell>
        <mxCell id="W6_hlZnn-KgXA1NEJbQf-56" value="15" style="text;html=1;align=center;verticalAlign=middle;whiteSpace=wrap;rounded=0;" vertex="1" parent="W6_hlZnn-KgXA1NEJbQf-52">
          <mxGeometry x="60" y="30" width="20" height="20" as="geometry" />
        </mxCell>
        <mxCell id="W6_hlZnn-KgXA1NEJbQf-57" value="3" style="text;html=1;align=center;verticalAlign=middle;whiteSpace=wrap;rounded=0;" vertex="1" parent="W6_hlZnn-KgXA1NEJbQf-52">
          <mxGeometry x="40" y="10" width="20" height="20" as="geometry" />
        </mxCell>
        <mxCell id="W6_hlZnn-KgXA1NEJbQf-58" value="C5" style="text;html=1;strokeColor=none;fillColor=none;align=center;verticalAlign=middle;whiteSpace=wrap;rounded=0;" vertex="1" parent="1">
          <mxGeometry x="1810" y="630" width="60" height="30" as="geometry" />
        </mxCell>
        <mxCell id="W6_hlZnn-KgXA1NEJbQf-59" value="C4" style="text;html=1;strokeColor=none;fillColor=none;align=center;verticalAlign=middle;whiteSpace=wrap;rounded=0;" vertex="1" parent="1">
          <mxGeometry x="1810" y="690" width="60" height="30" as="geometry" />
        </mxCell>
        <mxCell id="W6_hlZnn-KgXA1NEJbQf-61" value="C7 / 2" style="text;html=1;strokeColor=none;fillColor=none;align=center;verticalAlign=middle;whiteSpace=wrap;rounded=0;" vertex="1" parent="1">
          <mxGeometry x="2150" y="660" width="60" height="30" as="geometry" />
        </mxCell>
        <mxCell id="W6_hlZnn-KgXA1NEJbQf-63" value="F10 /&amp;nbsp; 3" style="text;html=1;strokeColor=none;fillColor=none;align=center;verticalAlign=middle;whiteSpace=wrap;rounded=0;" vertex="1" parent="1">
          <mxGeometry x="2114" y="1045" width="60" height="30" as="geometry" />
        </mxCell>
        <mxCell id="W6_hlZnn-KgXA1NEJbQf-64" value="" style="group" connectable="0" vertex="1" parent="1">
          <mxGeometry x="1500" y="350" width="100" height="80" as="geometry" />
        </mxCell>
        <mxCell id="W6_hlZnn-KgXA1NEJbQf-65" value="0" style="text;html=1;align=center;verticalAlign=middle;whiteSpace=wrap;rounded=0;" vertex="1" parent="W6_hlZnn-KgXA1NEJbQf-64">
          <mxGeometry x="40" y="25" width="60" height="30" as="geometry" />
        </mxCell>
        <mxCell id="W6_hlZnn-KgXA1NEJbQf-66" value="" style="group" connectable="0" vertex="1" parent="W6_hlZnn-KgXA1NEJbQf-64">
          <mxGeometry width="100" height="80" as="geometry" />
        </mxCell>
        <mxCell id="W6_hlZnn-KgXA1NEJbQf-67" value="" style="shape=sumEllipse;perimeter=ellipsePerimeter;whiteSpace=wrap;html=1;backgroundOutline=1;fillColor=#fff2cc;strokeColor=#d6b656;" vertex="1" parent="W6_hlZnn-KgXA1NEJbQf-66">
          <mxGeometry x="10" width="80" height="80" as="geometry" />
        </mxCell>
        <mxCell id="W6_hlZnn-KgXA1NEJbQf-68" value="6" style="text;html=1;align=center;verticalAlign=middle;whiteSpace=wrap;rounded=0;" vertex="1" parent="W6_hlZnn-KgXA1NEJbQf-66">
          <mxGeometry x="40" y="50" width="20" height="20" as="geometry" />
        </mxCell>
        <mxCell id="W6_hlZnn-KgXA1NEJbQf-69" value="8" style="text;html=1;align=center;verticalAlign=middle;whiteSpace=wrap;rounded=0;" vertex="1" parent="W6_hlZnn-KgXA1NEJbQf-66">
          <mxGeometry x="20" y="30" width="20" height="20" as="geometry" />
        </mxCell>
        <mxCell id="W6_hlZnn-KgXA1NEJbQf-70" value="9" style="text;html=1;align=center;verticalAlign=middle;whiteSpace=wrap;rounded=0;" vertex="1" parent="W6_hlZnn-KgXA1NEJbQf-66">
          <mxGeometry x="60" y="30" width="20" height="20" as="geometry" />
        </mxCell>
        <mxCell id="W6_hlZnn-KgXA1NEJbQf-71" value="1" style="text;html=1;align=center;verticalAlign=middle;whiteSpace=wrap;rounded=0;" vertex="1" parent="W6_hlZnn-KgXA1NEJbQf-66">
          <mxGeometry x="40" y="10" width="20" height="20" as="geometry" />
        </mxCell>
        <mxCell id="W6_hlZnn-KgXA1NEJbQf-72" value="" style="endArrow=classic;html=1;rounded=0;exitX=0.667;exitY=0.167;exitDx=0;exitDy=0;exitPerimeter=0;" edge="1" parent="1">
          <mxGeometry width="50" height="50" relative="1" as="geometry">
            <mxPoint x="1010" y="430" as="sourcePoint" />
            <mxPoint x="1530" y="420" as="targetPoint" />
            <Array as="points">
              <mxPoint x="1030" y="460" />
              <mxPoint x="1460" y="460" />
            </Array>
          </mxGeometry>
        </mxCell>
        <mxCell id="W6_hlZnn-KgXA1NEJbQf-73" value="" style="endArrow=classic;html=1;rounded=0;exitX=0.5;exitY=1;exitDx=0;exitDy=0;entryX=0.493;entryY=1.031;entryDx=0;entryDy=0;entryPerimeter=0;" edge="1" parent="1" source="JG07l5RM8xytLAkRtf2T-7" target="W6_hlZnn-KgXA1NEJbQf-67">
          <mxGeometry width="50" height="50" relative="1" as="geometry">
            <mxPoint x="1001" y="435" as="sourcePoint" />
            <mxPoint x="1491" y="470" as="targetPoint" />
            <Array as="points">
              <mxPoint x="991" y="500" />
              <mxPoint x="1470" y="500" />
            </Array>
          </mxGeometry>
        </mxCell>
        <mxCell id="W6_hlZnn-KgXA1NEJbQf-75" value="B6" style="text;html=1;strokeColor=none;fillColor=none;align=center;verticalAlign=middle;whiteSpace=wrap;rounded=0;" vertex="1" parent="1">
          <mxGeometry x="1160" y="470" width="60" height="30" as="geometry" />
        </mxCell>
        <mxCell id="W6_hlZnn-KgXA1NEJbQf-76" value="B5" style="text;html=1;strokeColor=none;fillColor=none;align=center;verticalAlign=middle;whiteSpace=wrap;rounded=0;" vertex="1" parent="1">
          <mxGeometry x="1160" y="435" width="60" height="30" as="geometry" />
        </mxCell>
        <mxCell id="W6_hlZnn-KgXA1NEJbQf-77" value="" style="endArrow=classic;html=1;rounded=0;exitX=0.667;exitY=0.167;exitDx=0;exitDy=0;exitPerimeter=0;" edge="1" parent="1">
          <mxGeometry width="50" height="50" relative="1" as="geometry">
            <mxPoint x="1590" y="389.58" as="sourcePoint" />
            <mxPoint x="1790" y="389.58" as="targetPoint" />
            <Array as="points">
              <mxPoint x="1700" y="389.58" />
            </Array>
          </mxGeometry>
        </mxCell>
        <mxCell id="W6_hlZnn-KgXA1NEJbQf-78" value="B7" style="text;html=1;strokeColor=none;fillColor=none;align=center;verticalAlign=middle;whiteSpace=wrap;rounded=0;" vertex="1" parent="1">
          <mxGeometry x="1650" y="395" width="60" height="30" as="geometry" />
        </mxCell>
        <mxCell id="W6_hlZnn-KgXA1NEJbQf-79" value="" style="group" connectable="0" vertex="1" parent="1">
          <mxGeometry x="1780" y="350" width="100" height="80" as="geometry" />
        </mxCell>
        <mxCell id="W6_hlZnn-KgXA1NEJbQf-80" value="0" style="text;html=1;align=center;verticalAlign=middle;whiteSpace=wrap;rounded=0;" vertex="1" parent="W6_hlZnn-KgXA1NEJbQf-79">
          <mxGeometry x="40" y="25" width="60" height="30" as="geometry" />
        </mxCell>
        <mxCell id="W6_hlZnn-KgXA1NEJbQf-81" value="" style="group" connectable="0" vertex="1" parent="W6_hlZnn-KgXA1NEJbQf-79">
          <mxGeometry width="100" height="80" as="geometry" />
        </mxCell>
        <mxCell id="W6_hlZnn-KgXA1NEJbQf-82" value="" style="shape=sumEllipse;perimeter=ellipsePerimeter;whiteSpace=wrap;html=1;backgroundOutline=1;fillColor=#fff2cc;strokeColor=#d6b656;" vertex="1" parent="W6_hlZnn-KgXA1NEJbQf-81">
          <mxGeometry x="10" width="80" height="80" as="geometry" />
        </mxCell>
        <mxCell id="W6_hlZnn-KgXA1NEJbQf-83" value="7" style="text;html=1;align=center;verticalAlign=middle;whiteSpace=wrap;rounded=0;" vertex="1" parent="W6_hlZnn-KgXA1NEJbQf-81">
          <mxGeometry x="40" y="50" width="20" height="20" as="geometry" />
        </mxCell>
        <mxCell id="W6_hlZnn-KgXA1NEJbQf-84" value="12" style="text;html=1;align=center;verticalAlign=middle;whiteSpace=wrap;rounded=0;" vertex="1" parent="W6_hlZnn-KgXA1NEJbQf-81">
          <mxGeometry x="20" y="30" width="20" height="20" as="geometry" />
        </mxCell>
        <mxCell id="W6_hlZnn-KgXA1NEJbQf-85" value="13" style="text;html=1;align=center;verticalAlign=middle;whiteSpace=wrap;rounded=0;" vertex="1" parent="W6_hlZnn-KgXA1NEJbQf-81">
          <mxGeometry x="60" y="30" width="20" height="20" as="geometry" />
        </mxCell>
        <mxCell id="W6_hlZnn-KgXA1NEJbQf-86" value="1" style="text;html=1;align=center;verticalAlign=middle;whiteSpace=wrap;rounded=0;" vertex="1" parent="W6_hlZnn-KgXA1NEJbQf-81">
          <mxGeometry x="40" y="10" width="20" height="20" as="geometry" />
        </mxCell>
        <mxCell id="W6_hlZnn-KgXA1NEJbQf-88" value="B8" style="text;html=1;strokeColor=none;fillColor=none;align=center;verticalAlign=middle;whiteSpace=wrap;rounded=0;" vertex="1" parent="1">
          <mxGeometry x="1940" y="395" width="60" height="30" as="geometry" />
        </mxCell>
        <mxCell id="W6_hlZnn-KgXA1NEJbQf-89" value="" style="shape=sumEllipse;perimeter=ellipsePerimeter;whiteSpace=wrap;html=1;backgroundOutline=1;fillColor=#fff2cc;strokeColor=#d6b656;" vertex="1" parent="1">
          <mxGeometry x="2068" y="350" width="80" height="80" as="geometry" />
        </mxCell>
        <mxCell id="W6_hlZnn-KgXA1NEJbQf-90" value="8" style="text;html=1;align=center;verticalAlign=middle;whiteSpace=wrap;rounded=0;" vertex="1" parent="1">
          <mxGeometry x="2098" y="400" width="20" height="20" as="geometry" />
        </mxCell>
        <mxCell id="W6_hlZnn-KgXA1NEJbQf-91" value="13" style="text;html=1;align=center;verticalAlign=middle;whiteSpace=wrap;rounded=0;" vertex="1" parent="1">
          <mxGeometry x="2078" y="380" width="20" height="20" as="geometry" />
        </mxCell>
        <mxCell id="W6_hlZnn-KgXA1NEJbQf-92" value="14" style="text;html=1;align=center;verticalAlign=middle;whiteSpace=wrap;rounded=0;" vertex="1" parent="1">
          <mxGeometry x="2118" y="380" width="20" height="20" as="geometry" />
        </mxCell>
        <mxCell id="W6_hlZnn-KgXA1NEJbQf-93" value="1" style="text;html=1;align=center;verticalAlign=middle;whiteSpace=wrap;rounded=0;" vertex="1" parent="1">
          <mxGeometry x="2098" y="360" width="20" height="20" as="geometry" />
        </mxCell>
        <mxCell id="W6_hlZnn-KgXA1NEJbQf-94" value="" style="endArrow=classic;html=1;rounded=0;exitX=0.667;exitY=0.167;exitDx=0;exitDy=0;exitPerimeter=0;entryX=1;entryY=0;entryDx=0;entryDy=0;" edge="1" parent="1" target="W6_hlZnn-KgXA1NEJbQf-144">
          <mxGeometry width="50" height="50" relative="1" as="geometry">
            <mxPoint x="2148" y="390" as="sourcePoint" />
            <mxPoint x="2348" y="390" as="targetPoint" />
            <Array as="points">
              <mxPoint x="2258" y="390" />
              <mxPoint x="2520" y="440" />
            </Array>
          </mxGeometry>
        </mxCell>
        <mxCell id="W6_hlZnn-KgXA1NEJbQf-95" value="B9 /3" style="text;html=1;strokeColor=none;fillColor=none;align=center;verticalAlign=middle;whiteSpace=wrap;rounded=0;" vertex="1" parent="1">
          <mxGeometry x="2220" y="395" width="60" height="30" as="geometry" />
        </mxCell>
        <mxCell id="W6_hlZnn-KgXA1NEJbQf-96" value="" style="endArrow=block;dashed=1;endFill=0;endSize=12;html=1;rounded=0;exitX=1.059;exitY=0.685;exitDx=0;exitDy=0;entryX=0.064;entryY=0.283;entryDx=0;entryDy=0;exitPerimeter=0;entryPerimeter=0;" edge="1" parent="1" source="Evy_VJ2f85a_wjDh4gpD-72" target="JG07l5RM8xytLAkRtf2T-52">
          <mxGeometry width="160" relative="1" as="geometry">
            <mxPoint x="740" y="640" as="sourcePoint" />
            <mxPoint x="930" y="865" as="targetPoint" />
            <Array as="points">
              <mxPoint x="860" y="740" />
            </Array>
          </mxGeometry>
        </mxCell>
        <mxCell id="W6_hlZnn-KgXA1NEJbQf-97" value="&quot;A11&quot;" style="text;html=1;strokeColor=none;fillColor=none;align=center;verticalAlign=middle;whiteSpace=wrap;rounded=0;" vertex="1" parent="1">
          <mxGeometry x="920" y="690" width="60" height="30" as="geometry" />
        </mxCell>
        <mxCell id="W6_hlZnn-KgXA1NEJbQf-98" value="" style="group" connectable="0" vertex="1" parent="1">
          <mxGeometry x="1191" y="840" width="100" height="80" as="geometry" />
        </mxCell>
        <mxCell id="W6_hlZnn-KgXA1NEJbQf-99" value="0" style="text;html=1;align=center;verticalAlign=middle;whiteSpace=wrap;rounded=0;" vertex="1" parent="W6_hlZnn-KgXA1NEJbQf-98">
          <mxGeometry x="40" y="25" width="60" height="30" as="geometry" />
        </mxCell>
        <mxCell id="W6_hlZnn-KgXA1NEJbQf-100" value="" style="group" connectable="0" vertex="1" parent="W6_hlZnn-KgXA1NEJbQf-98">
          <mxGeometry width="100" height="80" as="geometry" />
        </mxCell>
        <mxCell id="W6_hlZnn-KgXA1NEJbQf-101" value="" style="shape=sumEllipse;perimeter=ellipsePerimeter;whiteSpace=wrap;html=1;backgroundOutline=1;fillColor=#fff2cc;strokeColor=#d6b656;" vertex="1" parent="W6_hlZnn-KgXA1NEJbQf-100">
          <mxGeometry x="10" width="80" height="80" as="geometry" />
        </mxCell>
        <mxCell id="W6_hlZnn-KgXA1NEJbQf-102" value="5" style="text;html=1;align=center;verticalAlign=middle;whiteSpace=wrap;rounded=0;" vertex="1" parent="W6_hlZnn-KgXA1NEJbQf-100">
          <mxGeometry x="40" y="50" width="20" height="20" as="geometry" />
        </mxCell>
        <mxCell id="W6_hlZnn-KgXA1NEJbQf-103" value="9" style="text;html=1;align=center;verticalAlign=middle;whiteSpace=wrap;rounded=0;" vertex="1" parent="W6_hlZnn-KgXA1NEJbQf-100">
          <mxGeometry x="20" y="30" width="20" height="20" as="geometry" />
        </mxCell>
        <mxCell id="W6_hlZnn-KgXA1NEJbQf-104" value="12" style="text;html=1;align=center;verticalAlign=middle;whiteSpace=wrap;rounded=0;" vertex="1" parent="W6_hlZnn-KgXA1NEJbQf-100">
          <mxGeometry x="60" y="30" width="20" height="20" as="geometry" />
        </mxCell>
        <mxCell id="W6_hlZnn-KgXA1NEJbQf-105" value="3" style="text;html=1;align=center;verticalAlign=middle;whiteSpace=wrap;rounded=0;" vertex="1" parent="W6_hlZnn-KgXA1NEJbQf-100">
          <mxGeometry x="40" y="10" width="20" height="20" as="geometry" />
        </mxCell>
        <mxCell id="W6_hlZnn-KgXA1NEJbQf-106" value="" style="endArrow=classic;html=1;rounded=0;exitX=1;exitY=0.5;exitDx=0;exitDy=0;" edge="1" parent="1">
          <mxGeometry width="50" height="50" relative="1" as="geometry">
            <mxPoint x="1279.25" y="879.6600000000001" as="sourcePoint" />
            <mxPoint x="1490" y="880" as="targetPoint" />
            <Array as="points">
              <mxPoint x="1389.25" y="879.6600000000001" />
            </Array>
          </mxGeometry>
        </mxCell>
        <mxCell id="W6_hlZnn-KgXA1NEJbQf-107" value="D2" style="text;html=1;strokeColor=none;fillColor=none;align=center;verticalAlign=middle;whiteSpace=wrap;rounded=0;" vertex="1" parent="1">
          <mxGeometry x="1350" y="850" width="60" height="30" as="geometry" />
        </mxCell>
        <mxCell id="W6_hlZnn-KgXA1NEJbQf-108" value="" style="group" connectable="0" vertex="1" parent="1">
          <mxGeometry x="1480" y="840" width="100" height="80" as="geometry" />
        </mxCell>
        <mxCell id="W6_hlZnn-KgXA1NEJbQf-109" value="0" style="text;html=1;align=center;verticalAlign=middle;whiteSpace=wrap;rounded=0;" vertex="1" parent="W6_hlZnn-KgXA1NEJbQf-108">
          <mxGeometry x="40" y="25" width="60" height="30" as="geometry" />
        </mxCell>
        <mxCell id="W6_hlZnn-KgXA1NEJbQf-110" value="" style="group" connectable="0" vertex="1" parent="W6_hlZnn-KgXA1NEJbQf-108">
          <mxGeometry width="100" height="80" as="geometry" />
        </mxCell>
        <mxCell id="W6_hlZnn-KgXA1NEJbQf-111" value="" style="shape=sumEllipse;perimeter=ellipsePerimeter;whiteSpace=wrap;html=1;backgroundOutline=1;fillColor=#fff2cc;strokeColor=#d6b656;" vertex="1" parent="W6_hlZnn-KgXA1NEJbQf-110">
          <mxGeometry x="10" width="80" height="80" as="geometry" />
        </mxCell>
        <mxCell id="W6_hlZnn-KgXA1NEJbQf-112" value="6" style="text;html=1;align=center;verticalAlign=middle;whiteSpace=wrap;rounded=0;" vertex="1" parent="W6_hlZnn-KgXA1NEJbQf-110">
          <mxGeometry x="40" y="50" width="20" height="20" as="geometry" />
        </mxCell>
        <mxCell id="W6_hlZnn-KgXA1NEJbQf-113" value="11" style="text;html=1;align=center;verticalAlign=middle;whiteSpace=wrap;rounded=0;" vertex="1" parent="W6_hlZnn-KgXA1NEJbQf-110">
          <mxGeometry x="20" y="30" width="20" height="20" as="geometry" />
        </mxCell>
        <mxCell id="W6_hlZnn-KgXA1NEJbQf-114" value="14" style="text;html=1;align=center;verticalAlign=middle;whiteSpace=wrap;rounded=0;" vertex="1" parent="W6_hlZnn-KgXA1NEJbQf-110">
          <mxGeometry x="60" y="30" width="20" height="20" as="geometry" />
        </mxCell>
        <mxCell id="W6_hlZnn-KgXA1NEJbQf-115" value="3" style="text;html=1;align=center;verticalAlign=middle;whiteSpace=wrap;rounded=0;" vertex="1" parent="W6_hlZnn-KgXA1NEJbQf-110">
          <mxGeometry x="40" y="10" width="20" height="20" as="geometry" />
        </mxCell>
        <mxCell id="W6_hlZnn-KgXA1NEJbQf-116" value="" style="endArrow=classic;html=1;rounded=0;exitX=1;exitY=0.5;exitDx=0;exitDy=0;" edge="1" parent="1">
          <mxGeometry width="50" height="50" relative="1" as="geometry">
            <mxPoint x="1569.25" y="880.0000000000001" as="sourcePoint" />
            <mxPoint x="1780" y="880.34" as="targetPoint" />
            <Array as="points">
              <mxPoint x="1679.25" y="880.0000000000001" />
            </Array>
          </mxGeometry>
        </mxCell>
        <mxCell id="W6_hlZnn-KgXA1NEJbQf-117" value="D3" style="text;html=1;strokeColor=none;fillColor=none;align=center;verticalAlign=middle;whiteSpace=wrap;rounded=0;" vertex="1" parent="1">
          <mxGeometry x="1630" y="850" width="60" height="30" as="geometry" />
        </mxCell>
        <mxCell id="W6_hlZnn-KgXA1NEJbQf-118" value="" style="group" connectable="0" vertex="1" parent="1">
          <mxGeometry x="1770" y="840" width="100" height="80" as="geometry" />
        </mxCell>
        <mxCell id="W6_hlZnn-KgXA1NEJbQf-119" value="0" style="text;html=1;align=center;verticalAlign=middle;whiteSpace=wrap;rounded=0;" vertex="1" parent="W6_hlZnn-KgXA1NEJbQf-118">
          <mxGeometry x="40" y="25" width="60" height="30" as="geometry" />
        </mxCell>
        <mxCell id="W6_hlZnn-KgXA1NEJbQf-120" value="" style="group" connectable="0" vertex="1" parent="W6_hlZnn-KgXA1NEJbQf-118">
          <mxGeometry width="100" height="80" as="geometry" />
        </mxCell>
        <mxCell id="W6_hlZnn-KgXA1NEJbQf-121" value="" style="shape=sumEllipse;perimeter=ellipsePerimeter;whiteSpace=wrap;html=1;backgroundOutline=1;fillColor=#fff2cc;strokeColor=#d6b656;" vertex="1" parent="W6_hlZnn-KgXA1NEJbQf-120">
          <mxGeometry x="10" width="80" height="80" as="geometry" />
        </mxCell>
        <mxCell id="W6_hlZnn-KgXA1NEJbQf-122" value="7" style="text;html=1;align=center;verticalAlign=middle;whiteSpace=wrap;rounded=0;" vertex="1" parent="W6_hlZnn-KgXA1NEJbQf-120">
          <mxGeometry x="40" y="50" width="20" height="20" as="geometry" />
        </mxCell>
        <mxCell id="W6_hlZnn-KgXA1NEJbQf-123" value="12" style="text;html=1;align=center;verticalAlign=middle;whiteSpace=wrap;rounded=0;" vertex="1" parent="W6_hlZnn-KgXA1NEJbQf-120">
          <mxGeometry x="20" y="30" width="20" height="20" as="geometry" />
        </mxCell>
        <mxCell id="W6_hlZnn-KgXA1NEJbQf-124" value="15" style="text;html=1;align=center;verticalAlign=middle;whiteSpace=wrap;rounded=0;" vertex="1" parent="W6_hlZnn-KgXA1NEJbQf-120">
          <mxGeometry x="60" y="30" width="20" height="20" as="geometry" />
        </mxCell>
        <mxCell id="W6_hlZnn-KgXA1NEJbQf-125" value="3" style="text;html=1;align=center;verticalAlign=middle;whiteSpace=wrap;rounded=0;" vertex="1" parent="W6_hlZnn-KgXA1NEJbQf-120">
          <mxGeometry x="40" y="10" width="20" height="20" as="geometry" />
        </mxCell>
        <mxCell id="W6_hlZnn-KgXA1NEJbQf-128" value="D4" style="text;html=1;strokeColor=none;fillColor=none;align=center;verticalAlign=middle;whiteSpace=wrap;rounded=0;" vertex="1" parent="1">
          <mxGeometry x="1930" y="820" width="60" height="30" as="geometry" />
        </mxCell>
        <mxCell id="W6_hlZnn-KgXA1NEJbQf-129" value="D5" style="text;html=1;strokeColor=none;fillColor=none;align=center;verticalAlign=middle;whiteSpace=wrap;rounded=0;" vertex="1" parent="1">
          <mxGeometry x="1930" y="880" width="60" height="30" as="geometry" />
        </mxCell>
        <mxCell id="W6_hlZnn-KgXA1NEJbQf-130" value="" style="group" connectable="0" vertex="1" parent="1">
          <mxGeometry x="2060" y="840" width="100" height="80" as="geometry" />
        </mxCell>
        <mxCell id="W6_hlZnn-KgXA1NEJbQf-131" value="0" style="text;html=1;align=center;verticalAlign=middle;whiteSpace=wrap;rounded=0;" vertex="1" parent="W6_hlZnn-KgXA1NEJbQf-130">
          <mxGeometry x="40" y="25" width="60" height="30" as="geometry" />
        </mxCell>
        <mxCell id="W6_hlZnn-KgXA1NEJbQf-132" value="" style="group" connectable="0" vertex="1" parent="W6_hlZnn-KgXA1NEJbQf-130">
          <mxGeometry width="100" height="80" as="geometry" />
        </mxCell>
        <mxCell id="W6_hlZnn-KgXA1NEJbQf-133" value="" style="shape=sumEllipse;perimeter=ellipsePerimeter;whiteSpace=wrap;html=1;backgroundOutline=1;fillColor=#fff2cc;strokeColor=#d6b656;" vertex="1" parent="W6_hlZnn-KgXA1NEJbQf-132">
          <mxGeometry x="10" width="80" height="80" as="geometry" />
        </mxCell>
        <mxCell id="W6_hlZnn-KgXA1NEJbQf-134" value="8" style="text;html=1;align=center;verticalAlign=middle;whiteSpace=wrap;rounded=0;" vertex="1" parent="W6_hlZnn-KgXA1NEJbQf-132">
          <mxGeometry x="40" y="50" width="20" height="20" as="geometry" />
        </mxCell>
        <mxCell id="W6_hlZnn-KgXA1NEJbQf-135" value="13" style="text;html=1;align=center;verticalAlign=middle;whiteSpace=wrap;rounded=0;" vertex="1" parent="W6_hlZnn-KgXA1NEJbQf-132">
          <mxGeometry x="20" y="30" width="20" height="20" as="geometry" />
        </mxCell>
        <mxCell id="W6_hlZnn-KgXA1NEJbQf-136" value="16" style="text;html=1;align=center;verticalAlign=middle;whiteSpace=wrap;rounded=0;" vertex="1" parent="W6_hlZnn-KgXA1NEJbQf-132">
          <mxGeometry x="60" y="30" width="20" height="20" as="geometry" />
        </mxCell>
        <mxCell id="W6_hlZnn-KgXA1NEJbQf-137" value="3" style="text;html=1;align=center;verticalAlign=middle;whiteSpace=wrap;rounded=0;" vertex="1" parent="W6_hlZnn-KgXA1NEJbQf-132">
          <mxGeometry x="40" y="10" width="20" height="20" as="geometry" />
        </mxCell>
        <mxCell id="W6_hlZnn-KgXA1NEJbQf-140" value="D6 / 1" style="text;html=1;strokeColor=none;fillColor=none;align=center;verticalAlign=middle;whiteSpace=wrap;rounded=0;" vertex="1" parent="1">
          <mxGeometry x="2224" y="850" width="60" height="30" as="geometry" />
        </mxCell>
        <mxCell id="JG07l5RM8xytLAkRtf2T-45" value="" style="endArrow=classic;html=1;rounded=0;exitX=0.973;exitY=0.499;exitDx=0;exitDy=0;exitPerimeter=0;entryX=0.438;entryY=-0.029;entryDx=0;entryDy=0;entryPerimeter=0;" edge="1" parent="1" source="JG07l5RM8xytLAkRtf2T-40" target="W6_hlZnn-KgXA1NEJbQf-144">
          <mxGeometry width="50" height="50" relative="1" as="geometry">
            <mxPoint x="1310" y="649.5200000000001" as="sourcePoint" />
            <mxPoint x="2550" y="649.86" as="targetPoint" />
            <Array as="points">
              <mxPoint x="2500" y="600" />
            </Array>
          </mxGeometry>
        </mxCell>
        <mxCell id="W6_hlZnn-KgXA1NEJbQf-151" value="" style="group" connectable="0" vertex="1" parent="1">
          <mxGeometry x="2820" y="720" width="100" height="80" as="geometry" />
        </mxCell>
        <mxCell id="W6_hlZnn-KgXA1NEJbQf-152" value="0" style="text;html=1;align=center;verticalAlign=middle;whiteSpace=wrap;rounded=0;" vertex="1" parent="W6_hlZnn-KgXA1NEJbQf-151">
          <mxGeometry x="40" y="25" width="60" height="30" as="geometry" />
        </mxCell>
        <mxCell id="W6_hlZnn-KgXA1NEJbQf-153" value="" style="group" connectable="0" vertex="1" parent="W6_hlZnn-KgXA1NEJbQf-151">
          <mxGeometry width="100" height="80" as="geometry" />
        </mxCell>
        <mxCell id="W6_hlZnn-KgXA1NEJbQf-154" value="" style="shape=sumEllipse;perimeter=ellipsePerimeter;whiteSpace=wrap;html=1;backgroundOutline=1;fillColor=#fff2cc;strokeColor=#d6b656;" vertex="1" parent="W6_hlZnn-KgXA1NEJbQf-153">
          <mxGeometry x="10" width="80" height="80" as="geometry" />
        </mxCell>
        <mxCell id="W6_hlZnn-KgXA1NEJbQf-155" value="10" style="text;html=1;align=center;verticalAlign=middle;whiteSpace=wrap;rounded=0;" vertex="1" parent="W6_hlZnn-KgXA1NEJbQf-153">
          <mxGeometry x="40" y="50" width="20" height="20" as="geometry" />
        </mxCell>
        <mxCell id="W6_hlZnn-KgXA1NEJbQf-156" value="18" style="text;html=1;align=center;verticalAlign=middle;whiteSpace=wrap;rounded=0;" vertex="1" parent="W6_hlZnn-KgXA1NEJbQf-153">
          <mxGeometry x="20" y="30" width="20" height="20" as="geometry" />
        </mxCell>
        <mxCell id="W6_hlZnn-KgXA1NEJbQf-157" value="18" style="text;html=1;align=center;verticalAlign=middle;whiteSpace=wrap;rounded=0;" vertex="1" parent="W6_hlZnn-KgXA1NEJbQf-153">
          <mxGeometry x="60" y="30" width="20" height="20" as="geometry" />
        </mxCell>
        <mxCell id="W6_hlZnn-KgXA1NEJbQf-158" value="0" style="text;html=1;align=center;verticalAlign=middle;whiteSpace=wrap;rounded=0;" vertex="1" parent="W6_hlZnn-KgXA1NEJbQf-153">
          <mxGeometry x="40" y="10" width="20" height="20" as="geometry" />
        </mxCell>
        <mxCell id="W6_hlZnn-KgXA1NEJbQf-159" value="G1" style="text;html=1;strokeColor=none;fillColor=none;align=center;verticalAlign=middle;whiteSpace=wrap;rounded=0;" vertex="1" parent="1">
          <mxGeometry x="2690" y="735" width="60" height="30" as="geometry" />
        </mxCell>
        <mxCell id="W6_hlZnn-KgXA1NEJbQf-161" value="G2" style="text;html=1;strokeColor=none;fillColor=none;align=center;verticalAlign=middle;whiteSpace=wrap;rounded=0;" vertex="1" parent="1">
          <mxGeometry x="2980" y="730" width="60" height="30" as="geometry" />
        </mxCell>
        <mxCell id="W6_hlZnn-KgXA1NEJbQf-162" value="" style="group" connectable="0" vertex="1" parent="1">
          <mxGeometry x="3120" y="710" width="100" height="80" as="geometry" />
        </mxCell>
        <mxCell id="W6_hlZnn-KgXA1NEJbQf-163" value="0" style="text;html=1;align=center;verticalAlign=middle;whiteSpace=wrap;rounded=0;" vertex="1" parent="W6_hlZnn-KgXA1NEJbQf-162">
          <mxGeometry x="40" y="25" width="60" height="30" as="geometry" />
        </mxCell>
        <mxCell id="W6_hlZnn-KgXA1NEJbQf-164" value="" style="group" connectable="0" vertex="1" parent="W6_hlZnn-KgXA1NEJbQf-162">
          <mxGeometry width="100" height="80" as="geometry" />
        </mxCell>
        <mxCell id="W6_hlZnn-KgXA1NEJbQf-165" value="" style="shape=sumEllipse;perimeter=ellipsePerimeter;whiteSpace=wrap;html=1;backgroundOutline=1;fillColor=#fff2cc;strokeColor=#d6b656;" vertex="1" parent="W6_hlZnn-KgXA1NEJbQf-164">
          <mxGeometry x="10" width="80" height="80" as="geometry" />
        </mxCell>
        <mxCell id="W6_hlZnn-KgXA1NEJbQf-166" value="11" style="text;html=1;align=center;verticalAlign=middle;whiteSpace=wrap;rounded=0;" vertex="1" parent="W6_hlZnn-KgXA1NEJbQf-164">
          <mxGeometry x="40" y="50" width="20" height="20" as="geometry" />
        </mxCell>
        <mxCell id="W6_hlZnn-KgXA1NEJbQf-167" value="20" style="text;html=1;align=center;verticalAlign=middle;whiteSpace=wrap;rounded=0;" vertex="1" parent="W6_hlZnn-KgXA1NEJbQf-164">
          <mxGeometry x="20" y="30" width="20" height="20" as="geometry" />
        </mxCell>
        <mxCell id="W6_hlZnn-KgXA1NEJbQf-168" value="20" style="text;html=1;align=center;verticalAlign=middle;whiteSpace=wrap;rounded=0;" vertex="1" parent="W6_hlZnn-KgXA1NEJbQf-164">
          <mxGeometry x="60" y="30" width="20" height="20" as="geometry" />
        </mxCell>
        <mxCell id="W6_hlZnn-KgXA1NEJbQf-169" value="0" style="text;html=1;align=center;verticalAlign=middle;whiteSpace=wrap;rounded=0;" vertex="1" parent="W6_hlZnn-KgXA1NEJbQf-164">
          <mxGeometry x="40" y="10" width="20" height="20" as="geometry" />
        </mxCell>
        <mxCell id="z2FUzCKC2WMr7_tJ0foO-7" value="" style="shape=sumEllipse;perimeter=ellipsePerimeter;whiteSpace=wrap;html=1;backgroundOutline=1;fillColor=#fff2cc;strokeColor=#d6b656;" vertex="1" parent="1">
          <mxGeometry x="-300" y="670" width="290" height="270" as="geometry" />
        </mxCell>
        <mxCell id="z2FUzCKC2WMr7_tJ0foO-8" value="RANG" style="text;html=1;align=center;verticalAlign=middle;whiteSpace=wrap;rounded=0;" vertex="1" parent="1">
          <mxGeometry x="-165" y="860" width="20" height="20" as="geometry" />
        </mxCell>
        <mxCell id="z2FUzCKC2WMr7_tJ0foO-9" value="DATE AU PLUS TOT" style="text;html=1;align=center;verticalAlign=middle;whiteSpace=wrap;rounded=0;" vertex="1" parent="1">
          <mxGeometry x="-320" y="795" width="165" height="20" as="geometry" />
        </mxCell>
        <mxCell id="z2FUzCKC2WMr7_tJ0foO-10" value="DATE&amp;nbsp; AU PLUS TARD" style="text;html=1;align=center;verticalAlign=middle;whiteSpace=wrap;rounded=0;" vertex="1" parent="1">
          <mxGeometry x="-155" y="795" width="145" height="20" as="geometry" />
        </mxCell>
        <mxCell id="z2FUzCKC2WMr7_tJ0foO-11" value="MARGE" style="text;html=1;align=center;verticalAlign=middle;whiteSpace=wrap;rounded=0;" vertex="1" parent="1">
          <mxGeometry x="-230" y="720" width="150" height="30" as="geometry" />
        </mxCell>
      </root>
    </mxGraphModel>
  </diagram>
</mxfile>
